<?xml version="1.0" encoding="utf-8"?>
<!-- Generator: Adobe Illustrator 25.4.1, SVG Export Plug-In . SVG Version: 6.00 Build 0)  -->
<svg version="1.1" id="Layer_1" focusable="false" xmlns="http://www.w3.org/2000/svg" xmlns:xlink="http://www.w3.org/1999/xlink"
	 x="0px" y="0px" viewBox="0 0 448 405" style="enable-background:new 0 0 448 405;" xml:space="preserve">
<style type="text/css">
	.st0{fill:#FFFFFF;}
</style>
<g>
	<path class="st0" d="M416.9,33.3H31.1C13.9,33.3,0,47.2,0,64.4v0c0,17.2,13.9,31.2,31.2,31.2h385.7c17.2,0,31.2-13.9,31.2-31.2v0
		C448,47.2,434.1,33.3,416.9,33.3z"/>
	<path class="st0" d="M416.9,171.3H31.1C13.9,171.3,0,185.3,0,202.5v0c0,17.2,13.9,31.2,31.2,31.2h385.7c17.2,0,31.2-13.9,31.2-31.2
		v0C448,185.3,434.1,171.3,416.9,171.3z"/>
	<path class="st0" d="M416.9,309.4H31.1C13.9,309.4,0,323.3,0,340.6v0c0,17.2,13.9,31.2,31.2,31.2h385.7c17.2,0,31.2-13.9,31.2-31.2
		v0C448,323.3,434.1,309.4,416.9,309.4z"/>
</g>
</svg>
