<?xml version="1.0" encoding="utf-8"?>
<!-- Generator: Adobe Illustrator 25.3.1, SVG Export Plug-In . SVG Version: 6.00 Build 0)  -->
<svg version="1.1" id="Layer_1" focusable="false" xmlns="http://www.w3.org/2000/svg" xmlns:xlink="http://www.w3.org/1999/xlink"
	 x="0px" y="0px" viewBox="0 0 448 405" style="enable-background:new 0 0 448 405;" xml:space="preserve">
<style type="text/css">
	.st0{fill:#FFFFFF;}
</style>
<g>
	<g>
		<path class="st0" d="M417,405H31c-16.4,0-30-12.8-31-29.3c-0.9-16.4,11.2-30.7,27.5-32.5c21.3-2.4,75.3-13.1,116.6-60.9
			c34.5-40,41.8-84.5,43.1-107.5c0.9-17.1,15.6-30.2,32.7-29.3s30.2,15.6,29.3,32.7c-1.7,30.9-11.5,90.7-58.1,144.6
			c-6.4,7.4-12.9,14.1-19.6,20.2H417c17.1,0,31,13.9,31,31C448,391.1,434.1,405,417,405z"/>
	</g>
	<g>
		<path class="st0" d="M31,267.2h92c0.5-0.6,1.1-1.2,1.6-1.8c17.5-20.2,26.8-41.9,31.7-60.2H31c-17.1,0-31,13.9-31,31
			C0,253.3,13.9,267.2,31,267.2z"/>
		<path class="st0" d="M255.1,267.2H417c17.1,0,31-13.9,31-31s-13.9-31-31-31H272.3C269.6,223,264.5,244.4,255.1,267.2z"/>
	</g>
	<g>
		<path class="st0" d="M141.5,112.5v-11.9c0-14.1,7.5-26.5,18.7-33.3H31c-17.1,0-31,13.9-31,31s13.9,31,31,31h110.5V112.5z"/>
		<path class="st0" d="M417,67.3H287.7c11.2,6.9,18.7,19.2,18.7,33.3v11.9v16.8H417c17.1,0,31-13.9,31-31S434.1,67.3,417,67.3z"/>
	</g>
	<path class="st0" d="M226.7,0.6c-1.2-0.8-3.1-0.8-4.3,0c-6.9,4.4-11.3,8.8-15.8,13.1c-18.2,18-19.5,38.5-15,59.4l-18.4,18.1
		c-2.9,2.8-4.2,8.3-3,12.1l8.5,26.1c0.3,0.9,0.8,1.7,1.4,2.3c2.3,2.3,6.1,2.4,8.4,0.1l18.3-18.1l-0.1,7.9c0,4,3.3,8,7.9,8l17.8,0.1
		c3.9,0,8-3.3,8-7.9l0.1-7.9l18.1,18.3c2.3,2.3,6.1,2.4,8.4,0.1c0.6-0.7,1.1-1.5,1.5-2.3l8.8-25.9c1.3-3.8,0.1-9.3-2.8-12.2
		l-18.2-18.4c4.8-20.8,3.7-41.4-14.1-59.6C237.9,9.5,233.5,5.1,226.7,0.6z M231.2,48c-3.9,3.8-10.2,3.8-14-0.1s-3.8-10.2,0.1-14
		c3.9-3.8,10.2-3.8,14,0.1C235.2,37.8,235.1,44.1,231.2,48z"/>
</g>
</svg>
