<?xml version="1.0" encoding="utf-8"?>
<!-- Generator: Adobe Illustrator 25.4.1, SVG Export Plug-In . SVG Version: 6.00 Build 0)  -->
<svg version="1.1" id="Layer_1" xmlns="http://www.w3.org/2000/svg" xmlns:xlink="http://www.w3.org/1999/xlink" x="0px" y="0px"
	 viewBox="0 0 4209.6 2699" style="enable-background:new 0 0 4209.6 2699;" xml:space="preserve">
<style type="text/css">
	.st0{clip-path:url(#SVGID_00000134226596370291994590000007832476851758910870_);fill:none;}
	
		.st1{clip-path:url(#SVGID_00000134226596370291994590000007832476851758910870_);fill:url(#SVGID_00000145056399756162431420000008122407703240454042_);}
	.st2{clip-path:url(#SVGID_00000134226596370291994590000007832476851758910870_);}
	.st3{fill:#FFFFFF;}
	.st4{opacity:5.000000e-02;fill:#F2EF47;enable-background:new    ;}
	.st5{opacity:5.000000e-02;fill:#F2EF4D;enable-background:new    ;}
	.st6{opacity:5.000000e-02;fill:#F2EF58;enable-background:new    ;}
	.st7{fill:#F2EFAC;}
	.st8{opacity:0.15;clip-path:url(#SVGID_00000134226596370291994590000007832476851758910870_);}
	.st9{fill:url(#SVGID_00000083799269394323981300000015987265544362311075_);}
	.st10{opacity:0.5;clip-path:url(#SVGID_00000134226596370291994590000007832476851758910870_);}
	.st11{fill:url(#SVGID_00000178896079869129526070000000149544211774408070_);}
	.st12{fill:url(#SVGID_00000152248275140672789620000003837841668658463161_);}
	.st13{fill:url(#SVGID_00000142163081925227606100000018442710955374370723_);}
	.st14{fill:url(#SVGID_00000016778772974884455630000016180328024808588445_);}
	.st15{opacity:0.2;fill:#F25CCC;enable-background:new    ;}
	.st16{fill:url(#SVGID_00000151544797705507235940000011756255967792212619_);}
	.st17{fill:url(#SVGID_00000143578137819084456080000000856853342176549284_);}
	.st18{fill:url(#SVGID_00000114757006666813105280000001754073121787904642_);}
	.st19{fill:url(#SVGID_00000109733127976771418570000004887817369809730472_);}
	.st20{fill:#9283F1;}
	.st21{fill:#C2A1F1;}
	.st22{fill:url(#SVGID_00000165954973467227620840000017894994771226848392_);}
	.st23{fill:url(#SVGID_00000158751583604977387840000011863275389836117648_);}
	.st24{opacity:0.3;fill:#CA554E;enable-background:new    ;}
	.st25{fill:url(#SVGID_00000134959752826720038560000016727955850473860999_);}
	.st26{fill:url(#SVGID_00000133520153257097125090000010172246499880368817_);}
	.st27{fill:url(#SVGID_00000004528294728532076790000005730728726766110605_);}
	.st28{opacity:0.3;fill:#4FABA6;enable-background:new    ;}
	.st29{fill:url(#SVGID_00000100356914417970836660000012270585065462260112_);}
	.st30{fill:url(#SVGID_00000011726812637237595360000009979331944196575654_);}
	.st31{fill:url(#SVGID_00000065062445481343477930000004395825168957530023_);}
	.st32{opacity:0.2;clip-path:url(#SVGID_00000134226596370291994590000007832476851758910870_);}
	.st33{opacity:0.7;fill:#FFFFFF;}
	.st34{opacity:0.3;clip-path:url(#SVGID_00000134226596370291994590000007832476851758910870_);}
</style>
<g id="Layer_1_00000049939212453061859380000012835756775245156237_">
</g>
<g>
	<defs>
		<rect id="SVGID_1_" x="-0.2" width="4209.8" height="2699"/>
	</defs>
	<clipPath id="SVGID_00000163055827902275028230000009873662891754974848_">
		<use xlink:href="#SVGID_1_"  style="overflow:visible;"/>
	</clipPath>
	
		<rect style="clip-path:url(#SVGID_00000163055827902275028230000009873662891754974848_);fill:none;" width="4209.6" height="2697.6"/>
	
		<linearGradient id="SVGID_00000041286434067750699220000006386414582691972512_" gradientUnits="userSpaceOnUse" x1="1437.1777" y1="-2003.6454" x2="2829.9099" y2="858.584" gradientTransform="matrix(1 0 0 1 0 1981)">
		<stop  offset="5.400000e-03" style="stop-color:#44168A"/>
		<stop  offset="1" style="stop-color:#FE6262"/>
	</linearGradient>
	
		<rect x="-64.2" y="-20.4" style="clip-path:url(#SVGID_00000163055827902275028230000009873662891754974848_);fill:url(#SVGID_00000041286434067750699220000006386414582691972512_);" width="4338.1" height="2739.8"/>
	
		<g id="stars_00000073708957669467640600000018180018426224388488_" style="clip-path:url(#SVGID_00000163055827902275028230000009873662891754974848_);">
		<circle class="st3" cx="1997.1" cy="246.5" r="5.5"/>
		<circle class="st3" cx="2518.1" cy="407.2" r="5.5"/>
		<circle class="st3" cx="2165.4" cy="182" r="5.5"/>
		<circle class="st3" cx="1514.8" cy="559.2" r="5.5"/>
		<circle class="st3" cx="2715.1" cy="1733.6" r="5.5"/>
		<circle class="st3" cx="2133" cy="1900.9" r="5.5"/>
		<circle class="st3" cx="2018.6" cy="2143.5" r="5.5"/>
		<circle class="st3" cx="4189.6" cy="1242.1" r="5.5"/>
		<circle class="st3" cx="4135.3" cy="100.1" r="5.5"/>
		<circle class="st3" cx="3718.7" cy="332.2" r="5.5"/>
		<circle class="st3" cx="2246" cy="1103" r="5.5"/>
		<circle class="st3" cx="2448.1" cy="848.2" r="5.5"/>
		<circle class="st3" cx="984.2" cy="646.4" r="5.5"/>
		<circle class="st3" cx="2596.6" cy="2225.4" r="5.5"/>
		<circle class="st3" cx="319.4" cy="1206.3" r="5.5"/>
		<circle class="st3" cx="1460.2" cy="1028.3" r="5.5"/>
		<circle class="st3" cx="294.9" cy="1691.8" r="5.5"/>
		<circle class="st3" cx="778.6" cy="1477.6" r="3.4"/>
		<circle class="st3" cx="130.7" cy="1375" r="3.4"/>
		<circle class="st3" cx="459.5" cy="1948.7" r="3.4"/>
		<circle class="st3" cx="100.1" cy="2267.5" r="3.4"/>
		<circle class="st3" cx="994.5" cy="1022.5" r="3.4"/>
		<circle class="st3" cx="1122.1" cy="1217.9" r="3.4"/>
		<circle class="st3" cx="1917.8" cy="781.3" r="3.4"/>
		<circle class="st3" cx="1803" cy="816.7" r="3.4"/>
		<circle class="st3" cx="2127.5" cy="1084.5" r="3.4"/>
		<circle class="st3" cx="773.8" cy="820.1" r="3.4"/>
		<circle class="st3" cx="1512.5" cy="150.7" r="3.4"/>
		<circle class="st3" cx="2441" cy="1420.4" r="3.4"/>
		<circle class="st3" cx="2517.8" cy="1292.5" r="3.4"/>
		<circle class="st3" cx="3533.8" cy="292.1" r="3.4"/>
		<circle class="st3" cx="2886" cy="435.7" r="3.4"/>
		<circle class="st3" cx="3185.5" cy="93.2" r="3.4"/>
		<circle class="st3" cx="3179.7" cy="486.4" r="3.4"/>
		<circle class="st3" cx="3135.2" cy="949.9" r="3.4"/>
		<circle class="st3" cx="2791.6" cy="1153.9" r="3.4"/>
		<circle class="st3" cx="3318.7" cy="1381.3" r="3.4"/>
		<circle class="st3" cx="3785.2" cy="1017.6" r="3.4"/>
		<circle class="st3" cx="4111.8" cy="777.9" r="3.4"/>
		<circle class="st3" cx="3812.8" cy="1824.5" r="3.4"/>
		<circle class="st3" cx="3051.4" cy="1381.3" r="3.4"/>
		<circle class="st3" cx="2656.2" cy="965.1" r="3.4"/>
		<circle class="st3" cx="2438.8" cy="738.8" r="3.4"/>
		<circle class="st3" cx="2646.8" cy="570.8" r="3.4"/>
		<circle class="st3" cx="2735.5" cy="498" r="3.4"/>
		<circle class="st3" cx="2700.4" cy="52.1" r="3.4"/>
		<circle class="st3" cx="2304.1" cy="272.3" r="3.4"/>
		<circle class="st3" cx="2029.9" cy="450.1" r="3.4"/>
		<circle class="st3" cx="1870.1" cy="356.8" r="3.4"/>
		<circle class="st3" cx="1806.4" cy="319.1" r="3.4"/>
		<circle class="st3" cx="1028.8" cy="113.3" r="3.4"/>
		<circle class="st3" cx="1840.7" cy="80.7" r="3.4"/>
		<circle class="st3" cx="1068.3" cy="555.6" r="3.4"/>
		<circle class="st3" cx="578.8" cy="1170" r="3.4"/>
		<circle class="st3" cx="2975.9" cy="1821.1" r="3.4"/>
		<circle class="st3" cx="929.4" cy="2298.6" r="3.4"/>
		<circle class="st3" cx="357.8" cy="2223.2" r="5.5"/>
		<circle class="st3" cx="1797.9" cy="1306.1" r="5.5"/>
		<circle class="st3" cx="1986.6" cy="1139.4" r="5.5"/>
		<circle class="st3" cx="839.5" cy="473.7" r="5.5"/>
	</g>
	<g style="clip-path:url(#SVGID_00000163055827902275028230000009873662891754974848_);">
		<path class="st4" d="M-64.2-20.4v1790.6c41.4,3.5,83.2,5.3,125.5,5.3c810.9,0,1468.3-657.4,1468.3-1468.3
			c0-112.6-12.7-222.3-36.7-327.7L-64.2-20.4L-64.2-20.4z"/>
		<path class="st5" d="M-64.2-20.4v1511.8c41.3,4.3,83.1,6.6,125.5,6.6C718.9,1498,1252,964.9,1252,307.3
			c0-113.6-15.9-223.6-45.7-327.7L-64.2-20.4L-64.2-20.4z"/>
		<path class="st6" d="M-64.2-20.4v1196.8c41,5.9,82.9,8.9,125.5,8.9c484.9,0,878-393.1,878-878c0-115.8-22.4-226.4-63.2-327.7
			L-64.2-20.4L-64.2-20.4z"/>
		<path class="st7" d="M-64.2-20.4v918.9c40.5,8.6,82.5,13.1,125.5,13.1c333.7,0,604.3-270.5,604.3-604.3
			c0-120.8-35.4-233.3-96.5-327.7L-64.2-20.4L-64.2-20.4z"/>
	</g>
	<g style="opacity:0.15;clip-path:url(#SVGID_00000163055827902275028230000009873662891754974848_);">
		
			<linearGradient id="SVGID_00000119833762241148916880000003853206031404223935_" gradientUnits="userSpaceOnUse" x1="6149.6851" y1="-916.1509" x2="6149.6851" y2="914.8794" gradientTransform="matrix(-0.9848 0.1739 0.1739 0.9848 9361.4648 1218.389)">
			<stop  offset="0" style="stop-color:#FEEAC2"/>
			<stop  offset="0.5068" style="stop-color:#FE62A6"/>
			<stop  offset="1" style="stop-color:#FEEAC2"/>
		</linearGradient>
		<path style="fill:url(#SVGID_00000119833762241148916880000003853206031404223935_);" d="M4273.8,969.5
			c-47.6,54.7-67.7,130.3-50.5,199.1c-105.3-20.7-221.9,42.8-254.9,138.8c-76.5-22.8-158.9,39.9-177.6,113s9.6,149.5,45.5,216.8
			c-88.8-64.2-216.2-77.9-318.3-34.3c-102.2,43.6-174.6,142.7-181.2,247.6c-49.4-58.5-159-57.6-207.4,1.7
			c-29.7-67.5-142.2-84.4-193.1-28.9c11.7-102.2-119-162.9-227.3-179.2c-83.5-12.6-173.6-16.4-248.3,20.9s-124.1,128.4-85.6,198.9
			c-96-31.4-206.5,73.2-172,162.7c-0.3-0.2-0.7-0.5-1-0.7c-48.7-33.3-114.9,1.9-114.9,61v45.3c0,409,331.5,587.2,740.5,587.2h1446.1
			V969.5z"/>
	</g>
	<g style="opacity:0.5;clip-path:url(#SVGID_00000163055827902275028230000009873662891754974848_);">
		
			<linearGradient id="SVGID_00000046321629468394371990000002366821766203760313_" gradientUnits="userSpaceOnUse" x1="3120.95" y1="1194.5288" x2="-1267.7421" y2="223.7213" gradientTransform="matrix(0.9661 0.2583 -0.2583 0.9661 415.0716 881.5971)">
			<stop  offset="0" style="stop-color:#FEEAC2"/>
			<stop  offset="1" style="stop-color:#FE62BB"/>
		</linearGradient>
		<path style="fill:url(#SVGID_00000046321629468394371990000002366821766203760313_);" d="M4273.8,1916
			c-14-13.6-30.1-24.7-48.3-32.6c-170.2-73.9-397,29.9-437.5,200.2c-186.3-89.8-444.6,16.7-497.2,205.1
			c-108.9-142.3-367-149.1-480.4-12.5c-7.2-57.3-55.7-108.5-115.6-122c-59.9-13.6-127,11.4-160.1,59.5
			c15.9-80.1-63.6-164.9-150.5-160.6c-37.6-103.9-129.7-189.7-240.8-224.3c-111.1-34.6-238.5-17.2-333.2,45.5
			c-26-45.1-83.7-72.4-137.4-65c-53.7,7.4-99.7,48.9-109.6,98.9c2-85.7-124.9-146.3-196.5-93.8c12.9-85.9-51.3-171.4-135.1-209.7
			c-83.8-38.2-181.9-36.9-272.6-19.8c19.2-104.9-20.1-218.3-101.7-293.6s-203.3-110.2-314.8-90.4c76.7-68.7,90.2-190.9,30.4-274.4
			s-186-118.8-283.4-79.1c-29.8-143.1-197-225.5-353.7-216.5v2088.5h4338.1V1916H4273.8z"/>
	</g>
	<g style="opacity:0.5;clip-path:url(#SVGID_00000163055827902275028230000009873662891754974848_);">
		
			<linearGradient id="SVGID_00000154412356438204259550000005603323643150304166_" gradientUnits="userSpaceOnUse" x1="2275.2622" y1="1009.9156" x2="-2112.0652" y2="39.4098" gradientTransform="matrix(0.9661 0.2583 -0.2583 0.9661 415.0716 881.5971)">
			<stop  offset="0" style="stop-color:#FEEAC2"/>
			<stop  offset="1" style="stop-color:#FE62BB"/>
		</linearGradient>
		<path style="fill:url(#SVGID_00000154412356438204259550000005603323643150304166_);" d="M3030.7,2719.4
			c-6.8-81.4-45.7-159.4-115.7-189.8c-166.7-72.4-387.6,25.7-434.7,189.8H3030.7z"/>
	</g>
	<g style="opacity:0.5;clip-path:url(#SVGID_00000163055827902275028230000009873662891754974848_);">
		
			<linearGradient id="SVGID_00000082330279415518317040000014637680845994041003_" gradientUnits="userSpaceOnUse" x1="2220.2485" y1="1258.8939" x2="-2166.7166" y2="288.4683" gradientTransform="matrix(0.9661 0.2583 -0.2583 0.9661 415.0716 881.5971)">
			<stop  offset="0" style="stop-color:#FEEAC2"/>
			<stop  offset="1" style="stop-color:#FE62BB"/>
		</linearGradient>
		<path style="fill:url(#SVGID_00000082330279415518317040000014637680845994041003_);" d="M2453.2,2719.4
			c-80-30.5-170.5-27.8-251.4,0H2453.2z"/>
	</g>
	<g style="opacity:0.5;clip-path:url(#SVGID_00000163055827902275028230000009873662891754974848_);">
		
			<linearGradient id="SVGID_00000103972420291222432720000015187306577274862474_" gradientUnits="userSpaceOnUse" x1="2051.1917" y1="2024.5496" x2="-2337.1943" y2="1053.8097" gradientTransform="matrix(0.9661 0.2583 -0.2583 0.9661 415.0716 881.5971)">
			<stop  offset="0" style="stop-color:#FEEAC2"/>
			<stop  offset="1" style="stop-color:#FE62BB"/>
		</linearGradient>
		<path style="fill:url(#SVGID_00000103972420291222432720000015187306577274862474_);" d="M1151.7,2719.4
			c-23.4-13.7-50.4-21.5-78.1-20.1c-37.6-103.9-129.7-189.7-240.8-224.3s-238.5-17.2-333.2,45.5c-26-45.1-83.7-72.4-137.4-65
			s-99.7,48.9-109.6,98.9c2-85.7-124.9-146.3-196.5-93.8c12.1-80.8-43.9-161.2-120.3-202.3v461.1L1151.7,2719.4L1151.7,2719.4z"/>
	</g>
	<g style="clip-path:url(#SVGID_00000163055827902275028230000009873662891754974848_);">
		<circle class="st15" cx="1404.2" cy="1887.4" r="673.1"/>
		<circle class="st15" cx="1404.2" cy="1887.4" r="581.3"/>
		
			<radialGradient id="SVGID_00000153669264835033231070000005520451211743865751_" cx="1206.0652" cy="-266.9303" r="798.0372" gradientTransform="matrix(1 0 0 1 0 1981)" gradientUnits="userSpaceOnUse">
			<stop  offset="1.300000e-03" style="stop-color:#C73CA0"/>
			<stop  offset="0.2644" style="stop-color:#C43B9E"/>
			<stop  offset="0.4299" style="stop-color:#BC3998"/>
			<stop  offset="0.5684" style="stop-color:#AD358D"/>
			<stop  offset="0.6921" style="stop-color:#982F7E"/>
			<stop  offset="0.8059" style="stop-color:#7E286A"/>
			<stop  offset="0.9108" style="stop-color:#5D1F53"/>
			<stop  offset="0.9954" style="stop-color:#3D163B"/>
		</radialGradient>
		<circle style="fill:url(#SVGID_00000153669264835033231070000005520451211743865751_);" cx="1404.2" cy="1887.4" r="545.4"/>
		
			<radialGradient id="SVGID_00000165212447992026031550000016755863158996722613_" cx="1089.9769" cy="-371.8074" r="551.8462" gradientTransform="matrix(1 0 0 1 0 1981)" gradientUnits="userSpaceOnUse">
			<stop  offset="6.100000e-03" style="stop-color:#B43C8F"/>
			<stop  offset="0.2813" style="stop-color:#B13B8D"/>
			<stop  offset="0.4543" style="stop-color:#A93887"/>
			<stop  offset="0.5991" style="stop-color:#9A347D"/>
			<stop  offset="0.7284" style="stop-color:#852D6E"/>
			<stop  offset="0.8474" style="stop-color:#6B255B"/>
			<stop  offset="0.9572" style="stop-color:#4A1A44"/>
			<stop  offset="0.9954" style="stop-color:#3D163B"/>
		</radialGradient>
		<path style="fill:url(#SVGID_00000165212447992026031550000016755863158996722613_);" d="M1280.1,1356.2c-3.7,3-7.4,6-11.1,9.1
			c-118.1,97.5-184.1,222.6-274.8,344.8c-36.6,48.5-79,93.5-132.2,117.4c-2.1,19.7-3.3,39.7-3.3,59.9c0,85.3,19.6,166,54.5,237.9
			c68.6-55.3,114.7-136.9,162-214.6c49.5-81.1,90.7-159.4,134.6-241.8c77.5-145.9,215.5-263.4,375-296.3
			c-56.6-19.9-117.4-30.7-180.7-30.7C1361.5,1342,1320,1347,1280.1,1356.2z"/>
		
			<radialGradient id="SVGID_00000025441670987263388300000007191026794686381198_" cx="1424.922" cy="-13.1588" r="541.0135" gradientTransform="matrix(1 0 0 1 0 1981)" gradientUnits="userSpaceOnUse">
			<stop  offset="6.100000e-03" style="stop-color:#B43C8F"/>
			<stop  offset="0.2813" style="stop-color:#B13B8D"/>
			<stop  offset="0.4543" style="stop-color:#A93887"/>
			<stop  offset="0.5991" style="stop-color:#9A347D"/>
			<stop  offset="0.7284" style="stop-color:#852D6E"/>
			<stop  offset="0.8474" style="stop-color:#6B255B"/>
			<stop  offset="0.9572" style="stop-color:#4A1A44"/>
			<stop  offset="0.9954" style="stop-color:#3D163B"/>
		</radialGradient>
		<path style="fill:url(#SVGID_00000025441670987263388300000007191026794686381198_);" d="M1925.7,1727.2
			c-38.6,10.1-76,25.9-111.2,51.7c-57.7,42.6-104.4,86.6-137.4,148.4c-27.5,52.2-41.2,107.2-72.8,159.4c-4.1,8.2-5.5,19.2-9.6,27.5
			c-63.2,111.3-167.6,178.6-280.3,228.1c-42.3,19.8-87.1,30.7-134.5,42.6c68.4,30.9,144.4,48.2,224.3,48.2c14.4,0,28.6-0.6,42.7-1.7
			c51.9-26.4,101-58.3,144.9-100.1c97.5-94.8,142.9-217.1,228.1-325.6c32-41.6,75.6-97.3,129.5-105.3c0.1-4.3,0.2-8.5,0.2-12.8
			C1949.6,1831.7,1941.2,1777.8,1925.7,1727.2z"/>
		
			<radialGradient id="SVGID_00000074421828486138200590000004784667766247316127_" cx="1239.2231" cy="-218.5547" r="643.7313" gradientTransform="matrix(1 0 0 1 0 1981)" gradientUnits="userSpaceOnUse">
			<stop  offset="6.100000e-03" style="stop-color:#B43C8F"/>
			<stop  offset="0.2813" style="stop-color:#B13B8D"/>
			<stop  offset="0.4543" style="stop-color:#A93887"/>
			<stop  offset="0.5991" style="stop-color:#9A347D"/>
			<stop  offset="0.7284" style="stop-color:#852D6E"/>
			<stop  offset="0.8474" style="stop-color:#6B255B"/>
			<stop  offset="0.9572" style="stop-color:#4A1A44"/>
			<stop  offset="0.9954" style="stop-color:#3D163B"/>
		</radialGradient>
		<path style="fill:url(#SVGID_00000074421828486138200590000004784667766247316127_);" d="M1749.5,1465.3
			c-86.9,28.7-174.1,56.2-258,96.5c-90.7,44-163.5,116.8-202,210.2c-27.5,68.7-55,134.6-94.8,199.2
			c-58.6,97.3-127.6,194.5-238.3,227.9c37.4,53.7,84.3,100.3,138.1,137.5c131.6-61.8,253.2-138.1,343.3-262.3
			c28.9-41.2,50.8-79.7,59.1-127.8c8.2-44,16.5-83.8,28.9-125c9.6-30.2,23.4-59.1,42.6-86.6c52.2-75.6,115.4-134.6,200.6-162.1
			c23.2-7.5,50-10.4,75.4-7.4C1817.1,1528.2,1785.2,1494.5,1749.5,1465.3z"/>
		<g>
			<path class="st20" d="M2433.2,1609c-21.1-64-237.2-54.4-551.1,15.3c7.2,13.4,13.9,27.1,20.2,40.5c147.8-17.5,247.1-9.1,261,33.1
				c28.4,86.2-335.5,283.4-711.4,407.2s-754.8,171.1-783.1,84.9c-14.6-44.3,68.5-116.2,201.4-191.4c-3-14.3-5-28.6-7.2-43.5
				c-314.3,136.1-517.1,267.5-495.2,334c31.8,96.4,519.8,22.4,1090.2-165.4C2028.3,1935.9,2465,1705.5,2433.2,1609z"/>
			<path class="st21" d="M2433.2,1597.7c-21.1-64-242.9-53.1-556.8,16.6c7.2,13.4,14.6,26.4,21,39.9
				c147.8-17.5,252.1-9.7,265.9,32.5c28.4,86.2-335.5,283.4-711.4,407.2s-754.8,171.1-783.1,84.9c-14.6-44.3,66.4-115.5,199.3-190.7
				c-2.4-14.4-4.7-28.2-6.3-43.4c-314.3,136.1-515.9,266.7-494,333.2c31.8,96.4,519.8,22.4,1090.2-165.4S2465,1694.2,2433.2,1597.7z
				"/>
		</g>
	</g>
	<g style="opacity:0.5;clip-path:url(#SVGID_00000163055827902275028230000009873662891754974848_);">
		
			<linearGradient id="SVGID_00000180333751271887485150000009870888649336364683_" gradientUnits="userSpaceOnUse" x1="3479.6121" y1="584.6035" x2="3479.6121" y2="2414.6152" gradientTransform="matrix(0.9848 0.1739 -0.1739 0.9848 245.4311 1218.389)">
			<stop  offset="0" style="stop-color:#FEEAC2"/>
			<stop  offset="0.5068" style="stop-color:#FE62A6"/>
			<stop  offset="1" style="stop-color:#FEEAC2"/>
		</linearGradient>
		<path style="fill:url(#SVGID_00000180333751271887485150000009870888649336364683_);" d="M4273.8,2128.9
			c-3.6-1.9-7.2-3.7-10.9-5.5c-109.9-52.3-244.5-36.9-357.9,8.1c-155.3,61.7-294.3,198-284.4,355.7c-157.6-76-377.6,7.6-433.8,164.9
			c-57.4-62.8-151.2-94.5-238.2-80.5c-86,13.9-162.2,71.9-194.4,147.8h1519.5L4273.8,2128.9L4273.8,2128.9z"/>
	</g>
	<g style="opacity:0.5;clip-path:url(#SVGID_00000163055827902275028230000009873662891754974848_);">
		
			<linearGradient id="SVGID_00000078755248718022952630000002469145026301423272_" gradientUnits="userSpaceOnUse" x1="1224.5358" y1="583.3781" x2="1224.5358" y2="2414.427" gradientTransform="matrix(0.9848 0.1739 -0.1739 0.9848 245.4311 1218.389)">
			<stop  offset="0" style="stop-color:#FEEAC2"/>
			<stop  offset="0.5068" style="stop-color:#FE62A6"/>
			<stop  offset="1" style="stop-color:#FEEAC2"/>
		</linearGradient>
		<path style="fill:url(#SVGID_00000078755248718022952630000002469145026301423272_);" d="M2751.2,2719.4
			c-76.6-97.6-241.5-121.6-345.6-49.5c34.5-89.5-76.1-194.1-172-162.7c38.4-70.5-11-161.6-85.6-198.9s-164.7-33.5-248.3-20.9
			c-108.3,16.3-239,77-227.3,179.2c-50.9-55.5-163.4-38.6-193.1,28.9c-48.4-59.3-158-60.2-207.4-1.7c-6.5-104.9-79-204-181.2-247.6
			s-229.5-29.9-318.3,34.3c36-67.2,64.2-143.6,45.5-216.8s-101-135.8-177.6-113c-33-96-149.6-159.4-254.9-138.8
			c20.5-81.9-11.9-173.5-80.5-227.8s-170.5-69-253.3-36.4c2.1-75.6-47.7-143-115.9-182.4v1354.2L2751.2,2719.4L2751.2,2719.4z"/>
	</g>
	<g style="clip-path:url(#SVGID_00000163055827902275028230000009873662891754974848_);">
		
			<ellipse transform="matrix(0.8352 -0.5499 0.5499 0.8352 103.3682 2042.028)" class="st24" cx="3459.1" cy="848.5" rx="291.3" ry="294.2"/>
		
			<radialGradient id="SVGID_00000145742300269726718300000010405616931051398321_" cx="3328.7976" cy="-1216.882" r="402.7098" gradientTransform="matrix(1 0 0 1 0 1981)" gradientUnits="userSpaceOnUse">
			<stop  offset="3.600000e-03" style="stop-color:#E66119"/>
			<stop  offset="0.2773" style="stop-color:#E35F1A"/>
			<stop  offset="0.4494" style="stop-color:#DB5A1C"/>
			<stop  offset="0.5934" style="stop-color:#CC5120"/>
			<stop  offset="0.722" style="stop-color:#B74526"/>
			<stop  offset="0.8403" style="stop-color:#9D342D"/>
			<stop  offset="0.9495" style="stop-color:#7C2036"/>
			<stop  offset="0.9985" style="stop-color:#6B163B"/>
		</radialGradient>
		<path style="fill:url(#SVGID_00000145742300269726718300000010405616931051398321_);" d="M3251.5,985.3
			c-76.3-115.9-45.2-271.2,69.6-346.8s269.7-42.8,346,73.1s45.2,271.2-69.6,346.8C3482.7,1133.9,3327.8,1101.2,3251.5,985.3z"/>
		<g>
			
				<linearGradient id="SVGID_00000153697438602940756360000006114205215703668411_" gradientUnits="userSpaceOnUse" x1="3237.51" y1="-946.6901" x2="3421.9968" y2="-1078.4664" gradientTransform="matrix(1 0 0 1 0 1981)">
				<stop  offset="7.630814e-04" style="stop-color:#C73C19"/>
				<stop  offset="0.9985" style="stop-color:#6B163B"/>
			</linearGradient>
			<path style="fill:url(#SVGID_00000153697438602940756360000006114205215703668411_);" d="M3473.4,971.3L3473.4,971.3
				c-7.4-11.3-22.5-14.5-33.7-7.1l-19,12.5c-9.8,6.5-23,3.7-29.6-6.2l0,0c-6.5-9.9-3.9-23.2,5.9-29.6l54-35.5
				c8.5-5.6,10.9-17.2,5.2-25.8l0,0c-5.7-8.6-17.2-11.1-25.7-5.4L3310.8,953c-9.6,6.3-22.5,3.6-28.8-6.1l0,0
				c-6.4-9.7-3.8-22.6,5.8-28.9l39.4-26c9.6-6.3,12.1-19.2,5.8-28.9l0,0c-6.4-9.7-19.3-12.4-28.8-6.1l-85.5,56.3
				c6.9,24.9,17.7,49.2,32.7,72c27.3,41.5,64.7,72.3,106.6,91.3l108.6-71.5C3477.8,997.7,3480.9,982.6,3473.4,971.3z"/>
			
				<linearGradient id="SVGID_00000155108936579628664740000002456027906043183491_" gradientUnits="userSpaceOnUse" x1="3367.9458" y1="-1248.0006" x2="3699.7" y2="-1248.0006" gradientTransform="matrix(1 0 0 1 0 1981)">
				<stop  offset="7.630814e-04" style="stop-color:#C73C19"/>
				<stop  offset="0.9985" style="stop-color:#6B163B"/>
			</linearGradient>
			<path style="fill:url(#SVGID_00000155108936579628664740000002456027906043183491_);" d="M3372,773.7L3372,773.7
				c7.4,11.3,22.5,14.5,33.7,7.1l117.9-77.6c8.5-5.6,20.1-3.2,25.7,5.4l3.1,4.7c5.7,8.6,3.4,20.2-5.2,25.8l-62.4,41.1
				c-8.5,5.6-10.9,17.2-5.2,25.8l0,0c5.7,8.6,17.2,11.1,25.7,5.4l124.5-82c8.5-5.6,20.1-3.2,25.7,5.4l2.5,3.7
				c5.7,8.6,3.4,20.2-5.2,25.8l-65.3,43c-9.6,6.3-12.1,19.2-5.8,28.9l0,0c6.4,9.7,19.3,12.4,28.8,6.1l89.2-58.7
				c-6.9-24.9-17.7-49.2-32.7-72c-27.3-41.5-64.7-72.3-106.6-91.3l-181.6,119.6C3367.6,747.3,3364.6,762.4,3372,773.7z"/>
		</g>
	</g>
	<g style="clip-path:url(#SVGID_00000163055827902275028230000009873662891754974848_);">
		
			<ellipse transform="matrix(0.8352 -0.5499 0.5499 0.8352 -46.0817 1263.0912)" class="st28" cx="2084.7" cy="708.4" rx="139.4" ry="140.8"/>
		<g>
			
				<radialGradient id="SVGID_00000049904156929397856950000011532539357037176504_" cx="2022.3582" cy="-1312.9967" r="192.7278" gradientTransform="matrix(1 0 0 1 0 1981)" gradientUnits="userSpaceOnUse">
				<stop  offset="5.400000e-03" style="stop-color:#61C9A6"/>
				<stop  offset="0.2949" style="stop-color:#60C6A6"/>
				<stop  offset="0.4768" style="stop-color:#5CBEA7"/>
				<stop  offset="0.6291" style="stop-color:#56AFA8"/>
				<stop  offset="0.7651" style="stop-color:#4D9AAA"/>
				<stop  offset="0.8889" style="stop-color:#4180AD"/>
				<stop  offset="1" style="stop-color:#3461B0"/>
			</radialGradient>
			<path style="fill:url(#SVGID_00000049904156929397856950000011532539357037176504_);" d="M1985.3,773.8
				c-36.5-55.5-21.6-129.8,33.3-166c54.9-36.2,129.1-20.5,165.6,35s21.6,129.8-33.3,166S2021.9,829.3,1985.3,773.8z"/>
			
				<radialGradient id="SVGID_00000053506846528614004980000005209163659709450932_" cx="2031.2501" cy="-1319.9529" r="145.0044" gradientTransform="matrix(1 0 0 1 0 1981)" gradientUnits="userSpaceOnUse">
				<stop  offset="6.100000e-03" style="stop-color:#4FB7A6"/>
				<stop  offset="0.3144" style="stop-color:#4EB4A6"/>
				<stop  offset="0.5082" style="stop-color:#4BACA7"/>
				<stop  offset="0.6704" style="stop-color:#479DA9"/>
				<stop  offset="0.8151" style="stop-color:#4088AB"/>
				<stop  offset="0.947" style="stop-color:#386EAE"/>
				<stop  offset="1" style="stop-color:#3461B0"/>
			</radialGradient>
			<path style="fill:url(#SVGID_00000053506846528614004980000005209163659709450932_);" d="M2057.1,681.4
				c0-37.7,41.6-64.4,83.6-78.5c-15.7-8.5-33-13.3-50.6-14.3c-37.4,18.6-72.7,48-90,85.7c-10.7,23.1,23.1,30.2,40.9,40.9
				c7.1,5.3,3.6,12.5,0,17.8c-10.8,21.5-26.9,38.9-44.2,55.7c6.3,6.9,13.3,13,20.7,18.2c31-25.5,59.8-53.3,78.6-89.9
				C2108.7,693.9,2057.1,690.3,2057.1,681.4z"/>
			
				<radialGradient id="SVGID_00000085222627662816305020000018319900545071695032_" cx="2085.6357" cy="-1289.9935" r="138.2067" gradientTransform="matrix(1 0 0 1 0 1981)" gradientUnits="userSpaceOnUse">
				<stop  offset="7.100000e-03" style="stop-color:#4FA2A6"/>
				<stop  offset="0.3454" style="stop-color:#4E9FA6"/>
				<stop  offset="0.558" style="stop-color:#4A97A8"/>
				<stop  offset="0.7359" style="stop-color:#4488AA"/>
				<stop  offset="0.8937" style="stop-color:#3C74AD"/>
				<stop  offset="1" style="stop-color:#3461B0"/>
			</radialGradient>
			<path style="fill:url(#SVGID_00000085222627662816305020000018319900545071695032_);" d="M2192.4,657.3c-2.4-4.9-5-9.7-8.1-14.4
				c-4.9-7.4-10.5-14.1-16.5-20c-21,9.9-39.2,25.3-51.9,44.3c-10.7,16,26.7,19.6,24.9,32c-8.1,51.3-49.1,88.3-88.5,124.2
				c27,7.9,56.5,6.3,83.1-5.9c17.5-25.8,33.2-53.1,48.2-80.9c8.9-16-1.8-32-7.1-46.3C2173.6,678.3,2182,666.3,2192.4,657.3z"/>
		</g>
	</g>
	<g style="opacity:0.2;clip-path:url(#SVGID_00000163055827902275028230000009873662891754974848_);">
		<polygon class="st33" points="1489.9,725 2456.4,438.3 1490.5,700.7 		"/>
		<circle class="st3" cx="1497.9" cy="709.7" r="16.8"/>
	</g>
	<g style="opacity:0.2;clip-path:url(#SVGID_00000163055827902275028230000009873662891754974848_);">
		<polygon class="st33" points="2592.1,1262.4 2987.9,1144.9 2592.3,1252.4 		"/>
		<circle class="st3" cx="2595.3" cy="1256.1" r="6.9"/>
	</g>
	<g style="opacity:0.2;clip-path:url(#SVGID_00000163055827902275028230000009873662891754974848_);">
		<polygon class="st33" points="2481.1,1399.8 2719.6,1329.1 2481.3,1393.8 		"/>
		<circle class="st3" cx="2483.1" cy="1396.1" r="4.2"/>
	</g>
	<g style="opacity:0.2;clip-path:url(#SVGID_00000163055827902275028230000009873662891754974848_);">
		<polygon class="st33" points="2759.4,1432 3221.4,1295 2759.7,1420.4 		"/>
		<circle class="st3" cx="2763.2" cy="1424.7" r="8"/>
	</g>
	<g style="opacity:0.3;clip-path:url(#SVGID_00000163055827902275028230000009873662891754974848_);">
		<polygon class="st33" points="2659.1,709 4090,284.5 2660.1,673 		"/>
		<circle class="st3" cx="2670.9" cy="686.4" r="24.9"/>
	</g>
</g>
</svg>
