<?xml version="1.0" encoding="utf-8"?>
<!-- Generator: Adobe Illustrator 25.4.1, SVG Export Plug-In . SVG Version: 6.00 Build 0)  -->
<svg version="1.1" id="Layer_1" xmlns="http://www.w3.org/2000/svg" xmlns:xlink="http://www.w3.org/1999/xlink" x="0px" y="0px"
	 viewBox="0 0 4209.6 2699" style="enable-background:new 0 0 4209.6 2699;" xml:space="preserve">
<style type="text/css">
	.st0{clip-path:url(#SVGID_00000101098566245887045800000002400919474615810180_);}
	.st1{fill:url(#SVGID_00000072279500035890131990000005273129841679256207_);}
	.st2{fill:#FFFFFF;}
	.st3{opacity:0.4;fill:#FFFFFF;enable-background:new    ;}
	.st4{opacity:5.000000e-02;fill:#F2EF47;enable-background:new    ;}
	.st5{opacity:5.000000e-02;fill:#F2EF4D;enable-background:new    ;}
	.st6{opacity:5.000000e-02;fill:#F2EF58;enable-background:new    ;}
	.st7{fill:#F2EFAC;}
	.st8{opacity:0.15;}
	.st9{fill:url(#SVGID_00000134963713277363453500000008289502691070900151_);}
	.st10{opacity:0.5;}
	.st11{fill:url(#SVGID_00000090993969169695634250000017093495974729216937_);}
	.st12{fill:url(#SVGID_00000078742008574567187380000002138394525268040322_);}
	.st13{fill:url(#SVGID_00000174565876467722459170000003741731507726618303_);}
	.st14{fill:url(#SVGID_00000130619754820507100280000009107131426138546865_);}
	.st15{opacity:0.2;fill:#F25CCC;enable-background:new    ;}
	.st16{fill:url(#SVGID_00000005975653575722871550000009214834091798706827_);}
	.st17{fill:url(#SVGID_00000000185130270796815120000010498988385099254425_);}
	.st18{fill:url(#SVGID_00000082364454333721716920000006375792460653557431_);}
	.st19{fill:url(#SVGID_00000085221131256737083090000011478741771030210954_);}
	.st20{fill:#9283F1;}
	.st21{fill:#C2A1F1;}
	.st22{fill:url(#SVGID_00000136379942400242224270000012555455631791066784_);}
	.st23{fill:url(#SVGID_00000144311097087232134140000006570054570880308097_);}
	.st24{opacity:0.3;fill:#CA554E;enable-background:new    ;}
	.st25{fill:url(#SVGID_00000028318557396732763480000007401688231933166761_);}
	.st26{fill:url(#SVGID_00000137812310530078674040000014144943475131428519_);}
	.st27{fill:url(#SVGID_00000044162206120813778690000002884254011528518805_);}
	.st28{opacity:0.3;fill:#4FABA6;enable-background:new    ;}
	.st29{fill:url(#SVGID_00000069388447561280682990000014758838346162948501_);}
	.st30{fill:url(#SVGID_00000072251480793580399100000017929155575482210994_);}
	.st31{fill:url(#SVGID_00000107567641164934892530000017831438309603835278_);}
</style>
<g id="Layer_1_00000049939212453061859380000012835756775245156237_">
</g>
<g>
	<defs>
		<rect id="SVGID_1_" width="4209.6" height="2697.6"/>
	</defs>
	<clipPath id="SVGID_00000010311737705117522790000014611752861885133451_">
		<use xlink:href="#SVGID_1_"  style="overflow:visible;"/>
	</clipPath>
	<g id="Layer_1_1_" style="clip-path:url(#SVGID_00000010311737705117522790000014611752861885133451_);">
		
			<linearGradient id="SVGID_00000113354928762927910230000005927787162809694360_" gradientUnits="userSpaceOnUse" x1="1437.1375" y1="2723.6257" x2="2829.8696" y2="-138.6038" gradientTransform="matrix(1 0 0 -1 0 2701)">
			<stop  offset="5.400000e-03" style="stop-color:#44168A"/>
			<stop  offset="1" style="stop-color:#FE6262"/>
		</linearGradient>
		
			<rect x="-64.2" y="-20.4" style="fill:url(#SVGID_00000113354928762927910230000005927787162809694360_);" width="4338.1" height="2739.8"/>
		<g>
			<g>
				<g>
					<g>
						<path class="st2" d="M175.7,150.7c2.9,0,2.9-4.6,0-4.6C172.7,146.2,172.7,150.7,175.7,150.7L175.7,150.7z"/>
					</g>
				</g>
				<g>
					<g>
						<path class="st2" d="M133.6,389.4c2.9,0,2.9-4.6,0-4.6C130.7,384.9,130.7,389.4,133.6,389.4L133.6,389.4z"/>
					</g>
				</g>
				<path class="st2" d="M495.9,239.7c0,2.3,0,4.7,0,7c0,2.9,4.6,2.9,4.6,0c0-2.3,0-4.7,0-7C500.5,236.8,495.9,236.8,495.9,239.7
					L495.9,239.7z"/>
				<path class="st2" d="M367.3,520.5c0-2.3,0-4.7,0-7c0-2.9-4.6-2.9-4.6,0c0,2.3,0,4.7,0,7C362.7,523.5,367.3,523.5,367.3,520.5
					L367.3,520.5z"/>
				<path class="st2" d="M327.6,309.9c0,2.3,0,4.7,0,7c0,2.9,4.6,2.9,4.6,0c0-2.3,0-4.7,0-7C332.2,307,327.6,307,327.6,309.9
					L327.6,309.9z"/>
				<g>
					<g>
						<path class="st2" d="M1031,115.6c2.9,0,2.9-4.6,0-4.6C1028.1,111.1,1028.1,115.6,1031,115.6L1031,115.6z"/>
					</g>
				</g>
				<g>
					<g>
						<path class="st2" d="M1066.1,557.9c2.9,0,2.9-4.6,0-4.6C1063.1,553.4,1063.1,557.9,1066.1,557.9L1066.1,557.9z"/>
					</g>
				</g>
				<path class="st2" d="M984.2,646.9c0-2.3,0-4.7,0-7c0-2.9-4.6-2.9-4.6,0c0,2.3,0,4.7,0,7C979.6,649.9,984.2,649.9,984.2,646.9
					L984.2,646.9z"/>
				<g>
					<g>
						<path class="st2" d="M771.6,810.7c2.9,0,2.9-4.6,0-4.6C768.7,806.1,768.7,810.7,771.6,810.7L771.6,810.7z"/>
					</g>
				</g>
				<path class="st2" d="M841.7,473.7c2.3,0,4.7,0,7,0c2.9,0,2.9-4.6,0-4.6c-2.3,0-4.7,0-7,0C838.8,469.1,838.8,473.7,841.7,473.7
					L841.7,473.7z"/>
				<path class="st2" d="M1523.4,561.1c-2.3-2.3-4.7-4.7-7-7c-2.1-2.1-5.3,1.1-3.2,3.2c2.3,2.3,4.7,4.7,7,7
					C1522.2,566.4,1525.5,563.1,1523.4,561.1L1523.4,561.1z"/>
				<path class="st2" d="M1468,1026c0-2.3,0-4.7,0-7c0-2.9-4.6-2.9-4.6,0c0,2.3,0,4.7,0,7C1463.4,1029,1468,1029,1468,1026
					L1468,1026z"/>
				<g>
					<g>
						<path class="st2" d="M1122.1,1217.9c2.9,0,2.9-4.6,0-4.6C1119.2,1213.3,1119.2,1217.9,1122.1,1217.9L1122.1,1217.9z"/>
					</g>
				</g>
				<path class="st2" d="M780.9,1482.4c0-2.3,0-4.7,0-7c0-2.9-4.6-2.9-4.6,0c0,2.3,0,4.7,0,7
					C776.3,1485.3,780.9,1485.3,780.9,1482.4L780.9,1482.4z"/>
				<g>
					<g>
						<path class="st2" d="M988.9,1028.3c2.9,0,2.9-4.6,0-4.6C986,1023.8,986,1028.3,988.9,1028.3L988.9,1028.3z"/>
					</g>
				</g>
				<path class="st2" d="M314.3,1210.2c2.3,2.3,4.7,4.7,7,7c2.1,2.1,5.3-1.1,3.2-3.2c-2.3-2.3-4.7-4.7-7-7
					C315.4,1204.9,312.2,1208.1,314.3,1210.2L314.3,1210.2z"/>
				<path class="st2" d="M125.6,1369.7c-1,7.3,11.6,6.8,10.1-0.2c-0.6-2.9-5-1.7-4.4,1.2c-0.1-0.5-0.1,0.1,0-0.2
					c0.1-0.2-0.1,0.1,0.1-0.2c-0.2,0.3,0.2-0.1,0,0c-0.1,0.1-0.3,0.4,0,0c0,0-0.2,0.2-0.3,0.2c0.4,0,0.2-0.1,0,0
					c-0.1,0-0.3,0.1-0.4,0.1c0.3-0.1,0.2,0,0,0c-0.2,0-0.9-0.1-0.4,0c-0.1,0-0.3-0.1-0.4-0.1c-0.2-0.1-0.1,0,0.2,0.1
					c0,0-0.1-0.1-0.1-0.1c-0.1-0.3,0.1,0.3,0,0c0,0-0.1-0.1-0.1-0.1c-0.1-0.1-0.1-0.1,0.1,0.2c0,0.1,0.1,0.4,0.1,0.1
					c0.2,0.6,0-0.1,0,0.3c0.2-1.2-0.3-2.5-1.6-2.8C127.4,1367.8,125.8,1368.4,125.6,1369.7L125.6,1369.7z"/>
				<g>
					<g>
						<path class="st2" d="M252.8,852.8c2.9,0,2.9-4.6,0-4.6C249.9,848.2,249.8,852.8,252.8,852.8L252.8,852.8z"/>
					</g>
				</g>
				<path class="st2" d="M583.9,1171.9c-2.3-2.3-4.7-4.7-7-7c-2.1-2.1-5.3,1.1-3.2,3.2c2.3,2.3,4.7,4.7,7,7
					C582.8,1177.2,586,1173.9,583.9,1171.9L583.9,1171.9z"/>
				<g>
					<g>
						<path class="st2" d="M1514.8,164.8c2.9,0,2.9-4.6,0-4.6C1511.8,160.2,1511.8,164.8,1514.8,164.8L1514.8,164.8z"/>
					</g>
				</g>
				<g>
					<g>
						<path class="st2" d="M1872.3,361.4c2.9,0,2.9-4.6,0-4.6C1869.4,356.8,1869.4,361.4,1872.3,361.4L1872.3,361.4z"/>
					</g>
				</g>
				<g>
					<g>
						<path class="st2" d="M1788.2,824.7c2.9,0,2.9-4.6,0-4.6C1785.2,820.2,1785.2,824.7,1788.2,824.7L1788.2,824.7z"/>
					</g>
				</g>
				<path class="st2" d="M1656.1,1452.3c0-2.7,0-5.5,0-8.2c0-2.9-4.6-2.9-4.6,0c0,2.7,0,5.5,0,8.2
					C1651.6,1455.3,1656.1,1455.3,1656.1,1452.3L1656.1,1452.3z"/>
				<g>
					<g>
						<path class="st2" d="M1310.9,1888c2.9,0,2.9-4.6,0-4.6C1307.9,1883.4,1307.9,1888,1310.9,1888L1310.9,1888z"/>
					</g>
				</g>
				<path class="st2" d="M461.7,1953.4c2.7,0,5.4,0,8.2,0c2.9,0,2.9-4.6,0-4.6c-2.7,0-5.4,0-8.2,0
					C458.7,1948.8,458.7,1953.4,461.7,1953.4L461.7,1953.4z"/>
				<path class="st2" d="M357.1,2219.3c-2.7-2.7-5.4-5.5-8.2-8.2c-2.1-2.1-5.3,1.1-3.2,3.2c2.7,2.7,5.4,5.5,8.2,8.2
					C356,2224.7,359.2,2221.4,357.1,2219.3L357.1,2219.3z"/>
				<path class="st2" d="M293.8,1688.6C293.9,1689.2,293.9,1688.3,293.8,1688.6C293.8,1688.9,293.9,1688.8,293.8,1688.6
					c0.1,0.1,0,0.2,0,0.2c0.2,0.3-0.4-0.1,0,0c0.2,0-0.3,0.2,0.1,0c0.2-0.1,0.2-0.1,0,0c0.2-0.1,0.3-0.1,0.5-0.1
					c0.3-0.1-0.3,0,0.1,0c0.2,0,0.4,0,0.5,0c0.3,0,0.8,0.1,1.1,0.3c-0.2-0.2-0.1-0.1,0,0.1c0.1,0.1-0.1-0.3,0,0c0-0.2-0.1-0.3-0.1,0
					c-0.1-0.6-0.1,0.2,0-0.2c-0.6,2.9,3.8,4.1,4.4,1.2c1.6-7.5-12.1-8.1-11.1-0.2c0.2,1.2,1.7,1.9,2.8,1.6
					C293.5,1691,294,1689.8,293.8,1688.6L293.8,1688.6z"/>
				<path class="st2" d="M104.7,2261.9c0-2.7,0-5.5,0-8.2c0-2.9-4.6-2.9-4.6,0c0,2.7,0,5.5,0,8.2
					C100.1,2264.8,104.7,2264.8,104.7,2261.9L104.7,2261.9z"/>
				<path class="st2" d="M1039.1,1771.2c0,2.7,0,5.5,0,8.2c0,2.9,4.6,2.9,4.6,0c0-2.7,0-5.5,0-8.2
					C1043.7,1768.3,1039.1,1768.3,1039.1,1771.2L1039.1,1771.2z"/>
				<path class="st2" d="M929.4,2302.7c0-2.7,0-5.5,0-8.2c0-2.9-4.6-2.9-4.6,0c0,2.7,0,5.5,0,8.2
					C924.8,2305.7,929.4,2305.7,929.4,2302.7L929.4,2302.7z"/>
				<g>
					<g>
						<path class="st2" d="M2115.8,1089.1c2.9,0,2.9-4.6,0-4.6C2112.9,1084.5,2112.9,1089.1,2115.8,1089.1L2115.8,1089.1z"/>
					</g>
				</g>
				<g>
					<g>
						<path class="st2" d="M2883.8,435.7c2.9,0,2.9-4.6,0-4.6C2880.8,431.1,2880.8,435.7,2883.8,435.7L2883.8,435.7z"/>
					</g>
				</g>
				<path class="st2" d="M3474.3,886c1.9-1.9,3.8-3.9,5.8-5.8c2.1-2.1-1.1-5.3-3.2-3.2c-1.9,1.9-3.8,3.9-5.8,5.8
					C3469,884.9,3472.3,888.1,3474.3,886L3474.3,886z"/>
				<g>
					<g>
						<path class="st2" d="M3057,1360.8c2.9,0,2.9-4.6,0-4.6C3054,1356.3,3054,1360.8,3057,1360.8L3057,1360.8z"/>
					</g>
				</g>
				<path class="st2" d="M4131.4,92.7c-1.2,1.2-2.3,2.3-3.5,3.5c-2.1,2.1,1.1,5.3,3.2,3.2c1.2-1.2,2.3-2.3,3.5-3.5
					C4136.7,93.9,4133.4,90.6,4131.4,92.7c-1.2,1.2-2.3,2.3-3.5,3.5c-2.1,2.1,1.1,5.3,3.2,3.2c1.2-1.2,2.3-2.3,3.5-3.5
					C4136.7,93.9,4133.4,90.6,4131.4,92.7L4131.4,92.7z"/>
				<path class="st2" d="M3718.7,329.3c0,1.9,0,3.9,0,5.8c0,2.9,4.6,2.9,4.6,0c0-1.9,0-3.9,0-5.8
					C3723.3,326.4,3718.7,326.4,3718.7,329.3L3718.7,329.3z"/>
				<g>
					<g>
						<path class="st2" d="M2306.3,268c2.9,0,2.9-4.6,0-4.6C2303.4,263.4,2303.4,268,2306.3,268L2306.3,268z"/>
					</g>
				</g>
				<path class="st2" d="M2454.2,851.8c-1.9-1.9-3.8-3.9-5.8-5.8c-2.1-2.1-5.3,1.1-3.2,3.2c1.9,1.9,3.8,3.9,5.8,5.8
					C2453.1,857.1,2456.3,853.9,2454.2,851.8L2454.2,851.8z"/>
				<path class="st2" d="M2522.4,1306.8c0-4,0-8.1,0-12.1c0-2.9-4.6-2.9-4.6,0c0,4,0,8.1,0,12.1
					C2517.8,1309.7,2522.4,1309.7,2522.4,1306.8L2522.4,1306.8z"/>
				<g>
					<g>
						<path class="st2" d="M2145.6,1889.7c2.9,0,2.9-4.6,0-4.6C2142.7,1885.2,2142.7,1889.7,2145.6,1889.7L2145.6,1889.7z"/>
					</g>
				</g>
			</g>
			<g>
				<g>
					<g>
						<path class="st2" d="M1842.9,83.8c2.9,0,2.9-4.6,0-4.6C1839.9,79.2,1839.9,83.8,1842.9,83.8L1842.9,83.8z"/>
					</g>
				</g>
				<g>
					<g>
						<path class="st2" d="M1800.8,322.5c2.9,0,2.9-4.6,0-4.6C1797.9,317.9,1797.9,322.5,1800.8,322.5L1800.8,322.5z"/>
					</g>
				</g>
				<path class="st2" d="M2163.1,172.8c0,2.3,0,4.7,0,7c0,2.9,4.6,2.9,4.6,0c0-2.3,0-4.7,0-7
					C2167.7,169.8,2163.1,169.8,2163.1,172.8L2163.1,172.8z"/>
				<path class="st2" d="M2034.5,453.6c0-2.3,0-4.7,0-7c0-2.9-4.6-2.9-4.6,0c0,2.3,0,4.7,0,7
					C2029.9,456.6,2034.5,456.6,2034.5,453.6L2034.5,453.6z"/>
				<path class="st2" d="M1994.8,243c0,2.3,0,4.7,0,7c0,2.9,4.6,2.9,4.6,0c0-2.3,0-4.7,0-7C1999.4,240.1,1994.8,240.1,1994.8,243
					L1994.8,243z"/>
				<g>
					<g>
						<path class="st2" d="M2698.2,48.7c2.9,0,2.9-4.6,0-4.6C2695.3,44.1,2695.3,48.7,2698.2,48.7L2698.2,48.7z"/>
					</g>
				</g>
				<g>
					<g>
						<path class="st2" d="M2733.3,491c2.9,0,2.9-4.6,0-4.6C2730.3,486.4,2730.3,491,2733.3,491L2733.3,491z"/>
					</g>
				</g>
				<path class="st2" d="M2651.4,580c0-2.3,0-4.7,0-7c0-2.9-4.6-2.9-4.6,0c0,2.3,0,4.7,0,7C2646.9,582.9,2651.4,582.9,2651.4,580
					L2651.4,580z"/>
				<g>
					<g>
						<path class="st2" d="M2438.8,743.8c2.9,0,2.9-4.6,0-4.6C2435.9,739.2,2435.9,743.8,2438.8,743.8L2438.8,743.8z"/>
					</g>
				</g>
				<path class="st2" d="M2508.9,406.8c2.3,0,4.7,0,7,0c2.9,0,2.9-4.6,0-4.6c-2.3,0-4.7,0-7,0C2506,402.2,2506,406.8,2508.9,406.8
					L2508.9,406.8z"/>
				<path class="st2" d="M3190.6,494.1c-2.3-2.3-4.7-4.7-7-7c-2.1-2.1-5.3,1.1-3.2,3.2c2.3,2.3,4.7,4.7,7,7
					C3189.4,499.4,3192.7,496.2,3190.6,494.1L3190.6,494.1z"/>
				<path class="st2" d="M3135.2,959.1c0-2.3,0-4.7,0-7c0-2.9-4.6-2.9-4.6,0c0,2.3,0,4.7,0,7
					C3130.6,962.1,3135.2,962.1,3135.2,959.1L3135.2,959.1z"/>
				<g>
					<g>
						<path class="st2" d="M2789.4,1151c2.9,0,2.9-4.6,0-4.6C2786.4,1146.4,2786.4,1151,2789.4,1151L2789.4,1151z"/>
					</g>
				</g>
				<path class="st2" d="M2448.1,1415.5c0-2.3,0-4.7,0-7c0-2.9-4.6-2.9-4.6,0c0,2.3,0,4.7,0,7
					C2443.5,1418.4,2448.1,1418.4,2448.1,1415.5L2448.1,1415.5z"/>
				<g>
					<g>
						<path class="st2" d="M2656.2,961.4c2.9,0,2.9-4.6,0-4.6C2653.2,956.8,2653.2,961.4,2656.2,961.4L2656.2,961.4z"/>
					</g>
				</g>
				<path class="st2" d="M1981.5,1143.3c2.3,2.3,4.7,4.7,7,7c2.1,2.1,5.3-1.1,3.2-3.2c-2.3-2.3-4.7-4.7-7-7
					C1982.6,1138,1979.4,1141.2,1981.5,1143.3L1981.5,1143.3z"/>
				<path class="st2" d="M1792.8,1302.7c-1,7.3,11.6,6.8,10.1-0.2c-0.6-2.9-5-1.7-4.4,1.2c-0.1-0.5-0.1,0.1,0-0.2
					c0.1-0.2-0.1,0.1,0.1-0.2c-0.2,0.3,0.2-0.1,0,0c-0.1,0.1-0.3,0.4,0,0c0,0-0.2,0.2-0.3,0.2c0.4,0,0.2-0.1,0,0
					c-0.1,0-0.3,0.1-0.4,0.1c0.3-0.1,0.2,0,0,0c-0.2,0-0.9-0.1-0.4,0c-0.1,0-0.3-0.1-0.4-0.1c-0.2-0.1-0.1,0,0.2,0.1
					c0,0-0.1-0.1-0.1-0.1c-0.1-0.3,0.1,0.3,0,0c0,0-0.1-0.1-0.1-0.1c-0.1-0.1-0.1-0.1,0.1,0.2c0,0.1,0.1,0.4,0.1,0.1
					c0.2,0.6,0-0.1,0,0.3c0.2-1.2-0.3-2.5-1.6-2.8C1794.6,1300.9,1793,1301.5,1792.8,1302.7L1792.8,1302.7z"/>
				<g>
					<g>
						<path class="st2" d="M1920,785.9c2.9,0,2.9-4.6,0-4.6C1917.1,781.3,1917.1,785.9,1920,785.9L1920,785.9z"/>
					</g>
				</g>
				<path class="st2" d="M2251.1,1104.9c-2.3-2.3-4.7-4.7-7-7c-2.1-2.1-5.3,1.1-3.2,3.2c2.3,2.3,4.7,4.7,7,7
					C2250,1110.3,2253.2,1107,2251.1,1104.9L2251.1,1104.9z"/>
				<g>
					<g>
						<path class="st2" d="M3182,97.8c2.9,0,2.9-4.6,0-4.6C3179,93.3,3179,97.8,3182,97.8L3182,97.8z"/>
					</g>
				</g>
				<g>
					<g>
						<path class="st2" d="M3539.5,294.4c2.9,0,2.9-4.6,0-4.6C3536.6,289.9,3536.6,294.4,3539.5,294.4L3539.5,294.4z"/>
					</g>
				</g>
				<g>
					<g>
						<path class="st2" d="M3455.4,757.8c2.9,0,2.9-4.6,0-4.6C3452.5,753.2,3452.4,757.8,3455.4,757.8L3455.4,757.8z"/>
					</g>
				</g>
				<path class="st2" d="M3323.3,1385.4c0-2.7,0-5.5,0-8.2c0-2.9-4.6-2.9-4.6,0c0,2.7,0,5.5,0,8.2
					C3318.8,1388.3,3323.3,1388.3,3323.3,1385.4L3323.3,1385.4z"/>
				<g>
					<g>
						<path class="st2" d="M2978.1,1821.1c2.9,0,2.9-4.6,0-4.6C2975.2,1816.5,2975.1,1821.1,2978.1,1821.1L2978.1,1821.1z"/>
					</g>
				</g>
				<path class="st2" d="M2128.9,1886.5c2.7,0,5.4,0,8.2,0c2.9,0,2.9-4.6,0-4.6c-2.7,0-5.4,0-8.2,0
					C2125.9,1881.9,2125.9,1886.5,2128.9,1886.5L2128.9,1886.5z"/>
				<path class="st2" d="M2024.3,2152.4c-2.7-2.7-5.4-5.5-8.2-8.2c-2.1-2.1-5.3,1.1-3.2,3.2c2.7,2.7,5.4,5.5,8.2,8.2
					C2023.2,2157.7,2026.4,2154.5,2024.3,2152.4L2024.3,2152.4z"/>
				<path class="st2" d="M1961,1621.7C1961.1,1622.2,1961.1,1621.4,1961,1621.7C1961.1,1621.9,1961.1,1621.9,1961,1621.7
					c0.1,0.1,0,0.2,0,0.2c0.2,0.3-0.4-0.1,0,0c0.2,0-0.3,0.2,0.1,0c0.2-0.1,0.2-0.1,0,0c0.2-0.1,0.3-0.1,0.5-0.1
					c0.3-0.1-0.3,0,0.1,0c0.2,0,0.4,0,0.5,0c0.3,0,0.8,0.1,1.1,0.3c-0.2-0.2-0.1-0.1,0,0.1c0.1,0.1-0.1-0.3,0,0c0-0.2-0.1-0.3-0.1,0
					c-0.1-0.6-0.1,0.2,0-0.2c-0.6,2.9,3.8,4.1,4.4,1.2c1.6-7.5-12.1-8.1-11.1-0.2c0.2,1.2,1.7,1.9,2.8,1.6
					C1960.8,1624.1,1961.2,1622.9,1961,1621.7L1961,1621.7z"/>
				<path class="st2" d="M1771.9,2194.9c0-2.7,0-5.5,0-8.2c0-2.9-4.6-2.9-4.6,0c0,2.7,0,5.5,0,8.2
					C1767.3,2197.9,1771.9,2197.9,1771.9,2194.9L1771.9,2194.9z"/>
				<path class="st2" d="M2706.3,1704.3c0,2.7,0,5.5,0,8.2c0,2.9,4.6,2.9,4.6,0c0-2.7,0-5.5,0-8.2
					C2710.9,1701.4,2706.3,1701.4,2706.3,1704.3L2706.3,1704.3z"/>
				<path class="st2" d="M2596.6,2235.8c0-2.7,0-5.5,0-8.2c0-2.9-4.6-2.9-4.6,0c0,2.7,0,5.5,0,8.2
					C2592,2238.8,2596.6,2238.8,2596.6,2235.8L2596.6,2235.8z"/>
				<g>
					<g>
						<path class="st2" d="M3783,1022.2c2.9,0,2.9-4.6,0-4.6C3780.1,1017.6,3780.1,1022.2,3783,1022.2L3783,1022.2z"/>
					</g>
				</g>
				<g>
					<g>
						<path class="st2" d="M3973.6,201.1c2.9,0,2.9-4.6,0-4.6C3970.6,196.5,3970.6,201.1,3973.6,201.1L3973.6,201.1z"/>
					</g>
				</g>
				<path class="st2" d="M4121.5,784.9c-1.9-1.9-3.8-3.9-5.8-5.8c-2.1-2.1-5.3,1.1-3.2,3.2c1.9,1.9,3.8,3.9,5.8,5.8
					C4120.3,790.2,4123.5,787,4121.5,784.9L4121.5,784.9z"/>
				<path class="st2" d="M4189.6,1239.9c0-4,0-8.1,0-12.1c0-2.9-4.6-2.9-4.6,0c0,4,0,8.1,0,12.1
					C4185,1242.8,4189.6,1242.8,4189.6,1239.9L4189.6,1239.9z"/>
				<g>
					<g>
						<path class="st2" d="M3812.8,1822.8c2.9,0,2.9-4.6,0-4.6C3809.9,1818.2,3809.9,1822.8,3812.8,1822.8L3812.8,1822.8z"/>
					</g>
				</g>
			</g>
		</g>
		<path class="st3" d="M1466.2,631.3l982.3-224.1c0.4-0.1,0.8,0.2,0.9,0.6c0.1,0.4-0.2,0.8-0.6,0.9l-979.2,237.5
			c-4.1,1-8.2-1.5-9.2-5.6c-1-4.1,1.5-8.2,5.6-9.2C1466.1,631.3,1466.2,631.3,1466.2,631.3z"/>
		<path class="st3" d="M2757.1,1413.4l461.2-103.6c0.2,0,0.4,0.1,0.4,0.3c0,0.2-0.1,0.4-0.3,0.4l-459.7,109.8
			c-1.9,0.5-3.9-0.7-4.3-2.6C2753.9,1415.8,2755.1,1413.9,2757.1,1413.4C2757.1,1413.4,2757.1,1413.4,2757.1,1413.4z"/>
		<path class="st3" d="M2476.2,1381.5l238.5-52.7c0.2,0,0.4,0.1,0.4,0.3c0,0.2-0.1,0.4-0.3,0.4l-237,58.9c-1.9,0.5-3.9-0.7-4.3-2.6
			C2473,1383.8,2474.2,1381.9,2476.2,1381.5C2476.1,1381.5,2476.2,1381.5,2476.2,1381.5z"/>
		<path class="st3" d="M2589.7,1235.3l368.1-81.4c0.3-0.1,0.6,0.1,0.7,0.4c0.1,0.3-0.1,0.6-0.4,0.6l-365.8,90.9c-3,0.7-6-1.1-6.7-4
			S2586.7,1236.1,2589.7,1235.3C2589.7,1235.3,2589.7,1235.3,2589.7,1235.3z"/>
		<path class="st3" d="M2625.3,618.6L4075,265c0.4-0.1,0.8,0.2,0.9,0.6c0.1,0.4-0.1,0.8-0.6,0.9L2629,633.4c-4.1,1-8.2-1.4-9.3-5.5
			C2618.7,623.8,2621.2,619.7,2625.3,618.6L2625.3,618.6z"/>
		<g>
			<path class="st4" d="M-64.2-20.4v1790.6c41.4,3.5,83.2,5.3,125.5,5.3c810.9,0,1468.3-657.4,1468.3-1468.3
				c0-112.6-12.7-222.3-36.7-327.7L-64.2-20.4L-64.2-20.4z"/>
			<path class="st5" d="M-64.2-20.4v1511.8c41.3,4.3,83.1,6.6,125.5,6.6c657.6,0,1190.7-533.1,1190.7-1190.7
				c0-113.6-15.9-223.6-45.7-327.7L-64.2-20.4L-64.2-20.4z"/>
			<path class="st6" d="M-64.2-20.4v1196.8c41,5.9,82.9,8.9,125.5,8.9c484.9,0,878-393.1,878-878c0-115.8-22.4-226.4-63.2-327.7
				L-64.2-20.4L-64.2-20.4z"/>
			<path class="st7" d="M-64.2-20.4v918.9c40.5,8.6,82.5,13.1,125.5,13.1c333.7,0,604.3-270.5,604.3-604.3
				c0-120.8-35.4-233.3-96.5-327.7L-64.2-20.4L-64.2-20.4z"/>
		</g>
		<g class="st8">
			
				<linearGradient id="SVGID_00000049195884356296169130000009861405441394291349_" gradientUnits="userSpaceOnUse" x1="2858.4263" y1="1347.8357" x2="2858.4263" y2="-483.1946" gradientTransform="matrix(-0.9848 0.1739 -0.1739 -0.9848 6195.3579 2215.8525)">
				<stop  offset="0" style="stop-color:#FEEAC2"/>
				<stop  offset="0.5068" style="stop-color:#FE62A6"/>
				<stop  offset="1" style="stop-color:#FEEAC2"/>
			</linearGradient>
			<path style="fill:url(#SVGID_00000049195884356296169130000009861405441394291349_);" d="M4273.8,969.5
				c-47.6,54.7-67.7,130.3-50.5,199.1c-105.3-20.7-221.9,42.8-254.9,138.8c-76.5-22.8-158.9,39.9-177.6,113s9.6,149.5,45.5,216.8
				c-88.8-64.2-216.2-77.9-318.3-34.3c-102.2,43.6-174.6,142.7-181.2,247.6c-49.4-58.5-159-57.6-207.4,1.7
				c-29.7-67.5-142.2-84.4-193.1-28.9c11.7-102.2-119-162.9-227.3-179.2c-83.5-12.6-173.6-16.4-248.3,20.9
				c-74.7,37.3-124.1,128.4-85.6,198.9c-96-31.4-206.5,73.2-172,162.7c-0.3-0.2-0.7-0.5-1-0.7c-48.7-33.3-114.9,1.9-114.9,61v45.3
				c0,409,331.5,587.2,740.5,587.2h1446.1V969.5z"/>
		</g>
		<g class="st10">
			
				<linearGradient id="SVGID_00000106111834243689025540000009716486014581898422_" gradientUnits="userSpaceOnUse" x1="3317.3799" y1="9.803" x2="-1071.3121" y2="980.6106" gradientTransform="matrix(0.9661 0.2583 0.2583 -0.9661 -85.777 1994.3616)">
				<stop  offset="0" style="stop-color:#FEEAC2"/>
				<stop  offset="1" style="stop-color:#FE62BB"/>
			</linearGradient>
			<path style="fill:url(#SVGID_00000106111834243689025540000009716486014581898422_);" d="M4273.8,1916
				c-14-13.6-30.1-24.7-48.3-32.6c-170.2-73.9-397,29.9-437.5,200.2c-186.3-89.8-444.6,16.7-497.2,205.1
				c-108.9-142.3-367-149.1-480.4-12.5c-7.2-57.3-55.7-108.5-115.6-122c-59.9-13.6-127,11.4-160.1,59.5
				c15.9-80.1-63.6-164.9-150.5-160.6c-37.6-103.9-129.7-189.7-240.8-224.3c-111.1-34.6-238.5-17.2-333.2,45.5
				c-26-45.1-83.7-72.4-137.4-65c-53.7,7.4-99.7,48.9-109.6,98.9c2-85.7-124.9-146.3-196.5-93.8c12.9-85.9-51.3-171.4-135.1-209.7
				c-83.8-38.2-181.9-36.9-272.6-19.8c19.2-104.9-20.1-218.3-101.7-293.6s-203.3-110.2-314.8-90.4c76.7-68.7,90.2-190.9,30.4-274.4
				c-59.8-83.5-186-118.8-283.4-79.1C259.7,704.3,92.5,621.9-64.2,630.9v2088.5h4338.1V1916z"/>
		</g>
		<g class="st10">
			
				<linearGradient id="SVGID_00000156559153571315790310000000260159874419603127_" gradientUnits="userSpaceOnUse" x1="2471.6858" y1="194.3869" x2="-1915.6417" y2="1164.8926" gradientTransform="matrix(0.9661 0.2583 0.2583 -0.9661 -85.777 1994.3616)">
				<stop  offset="0" style="stop-color:#FEEAC2"/>
				<stop  offset="1" style="stop-color:#FE62BB"/>
			</linearGradient>
			<path style="fill:url(#SVGID_00000156559153571315790310000000260159874419603127_);" d="M3030.7,2719.4
				c-6.8-81.4-45.7-159.4-115.7-189.8c-166.7-72.4-387.6,25.7-434.7,189.8H3030.7z"/>
		</g>
		<g class="st10">
			
				<linearGradient id="SVGID_00000176020504145592783580000014043085874663656374_" gradientUnits="userSpaceOnUse" x1="2416.6741" y1="-54.5823" x2="-1970.2911" y2="915.8433" gradientTransform="matrix(0.9661 0.2583 0.2583 -0.9661 -85.777 1994.3616)">
				<stop  offset="0" style="stop-color:#FEEAC2"/>
				<stop  offset="1" style="stop-color:#FE62BB"/>
			</linearGradient>
			<path style="fill:url(#SVGID_00000176020504145592783580000014043085874663656374_);" d="M2453.2,2719.4
				c-80-30.5-170.5-27.8-251.4,0H2453.2z"/>
		</g>
		<g class="st10">
			
				<linearGradient id="SVGID_00000045592185284871392630000000782980610946271165_" gradientUnits="userSpaceOnUse" x1="2247.614" y1="-820.2523" x2="-2140.7715" y2="150.4875" gradientTransform="matrix(0.9661 0.2583 0.2583 -0.9661 -85.777 1994.3616)">
				<stop  offset="0" style="stop-color:#FEEAC2"/>
				<stop  offset="1" style="stop-color:#FE62BB"/>
			</linearGradient>
			<path style="fill:url(#SVGID_00000045592185284871392630000000782980610946271165_);" d="M1151.7,2719.4
				c-23.4-13.7-50.4-21.5-78.1-20.1c-37.6-103.9-129.7-189.7-240.8-224.3c-111.1-34.6-238.5-17.2-333.2,45.5
				c-26-45.1-83.7-72.4-137.4-65s-99.7,48.9-109.6,98.9c2-85.7-124.9-146.3-196.5-93.8c12.1-80.8-43.9-161.2-120.3-202.3v461.1
				H1151.7z"/>
		</g>
		<g>
			<circle class="st15" cx="1404.2" cy="1887.4" r="673.1"/>
			<circle class="st15" cx="1404.2" cy="1887.4" r="581.3"/>
			
				<radialGradient id="SVGID_00000001657725952534379890000013054854934834383014_" cx="1206.0652" cy="986.9303" r="798.0372" gradientTransform="matrix(1 0 0 -1 0 2701)" gradientUnits="userSpaceOnUse">
				<stop  offset="1.300000e-03" style="stop-color:#C73CA0"/>
				<stop  offset="0.2644" style="stop-color:#C43B9E"/>
				<stop  offset="0.4299" style="stop-color:#BC3998"/>
				<stop  offset="0.5684" style="stop-color:#AD358D"/>
				<stop  offset="0.6921" style="stop-color:#982F7E"/>
				<stop  offset="0.8059" style="stop-color:#7E286A"/>
				<stop  offset="0.9108" style="stop-color:#5D1F53"/>
				<stop  offset="0.9954" style="stop-color:#3D163B"/>
			</radialGradient>
			<circle style="fill:url(#SVGID_00000001657725952534379890000013054854934834383014_);" cx="1404.2" cy="1887.4" r="545.4"/>
			
				<radialGradient id="SVGID_00000048488701645409192460000013658957525489837733_" cx="1089.9769" cy="1091.8074" r="551.8462" gradientTransform="matrix(1 0 0 -1 0 2701)" gradientUnits="userSpaceOnUse">
				<stop  offset="6.100000e-03" style="stop-color:#B43C8F"/>
				<stop  offset="0.2813" style="stop-color:#B13B8D"/>
				<stop  offset="0.4543" style="stop-color:#A93887"/>
				<stop  offset="0.5991" style="stop-color:#9A347D"/>
				<stop  offset="0.7284" style="stop-color:#852D6E"/>
				<stop  offset="0.8474" style="stop-color:#6B255B"/>
				<stop  offset="0.9572" style="stop-color:#4A1A44"/>
				<stop  offset="0.9954" style="stop-color:#3D163B"/>
			</radialGradient>
			<path style="fill:url(#SVGID_00000048488701645409192460000013658957525489837733_);" d="M1280.1,1356.2c-3.7,3-7.4,6-11.1,9.1
				c-118.1,97.5-184.1,222.6-274.8,344.8c-36.6,48.5-79,93.5-132.2,117.4c-2.1,19.7-3.3,39.7-3.3,59.9c0,85.3,19.6,166,54.5,237.9
				c68.6-55.3,114.7-136.9,162-214.6c49.5-81.1,90.7-159.4,134.6-241.8c77.5-145.9,215.5-263.4,375-296.3
				c-56.6-19.9-117.4-30.7-180.7-30.7C1361.5,1342,1320,1347,1280.1,1356.2z"/>
			
				<radialGradient id="SVGID_00000083781235667388383330000013432005510965635516_" cx="1424.922" cy="733.1588" r="541.0135" gradientTransform="matrix(1 0 0 -1 0 2701)" gradientUnits="userSpaceOnUse">
				<stop  offset="6.100000e-03" style="stop-color:#B43C8F"/>
				<stop  offset="0.2813" style="stop-color:#B13B8D"/>
				<stop  offset="0.4543" style="stop-color:#A93887"/>
				<stop  offset="0.5991" style="stop-color:#9A347D"/>
				<stop  offset="0.7284" style="stop-color:#852D6E"/>
				<stop  offset="0.8474" style="stop-color:#6B255B"/>
				<stop  offset="0.9572" style="stop-color:#4A1A44"/>
				<stop  offset="0.9954" style="stop-color:#3D163B"/>
			</radialGradient>
			<path style="fill:url(#SVGID_00000083781235667388383330000013432005510965635516_);" d="M1925.7,1727.2
				c-38.6,10.1-76,25.9-111.2,51.7c-57.7,42.6-104.4,86.6-137.4,148.4c-27.5,52.2-41.2,107.2-72.8,159.4c-4.1,8.2-5.5,19.2-9.6,27.5
				c-63.2,111.3-167.6,178.6-280.3,228.1c-42.3,19.8-87.1,30.7-134.5,42.6c68.4,30.9,144.4,48.2,224.3,48.2
				c14.4,0,28.6-0.6,42.7-1.7c51.9-26.4,101-58.3,144.9-100.1c97.5-94.8,142.9-217.1,228.1-325.6c32-41.6,75.6-97.3,129.5-105.3
				c0.1-4.3,0.2-8.5,0.2-12.8C1949.6,1831.7,1941.2,1777.8,1925.7,1727.2z"/>
			
				<radialGradient id="SVGID_00000104698094186434048130000002929505824083263138_" cx="1239.2231" cy="938.5547" r="643.7313" gradientTransform="matrix(1 0 0 -1 0 2701)" gradientUnits="userSpaceOnUse">
				<stop  offset="6.100000e-03" style="stop-color:#B43C8F"/>
				<stop  offset="0.2813" style="stop-color:#B13B8D"/>
				<stop  offset="0.4543" style="stop-color:#A93887"/>
				<stop  offset="0.5991" style="stop-color:#9A347D"/>
				<stop  offset="0.7284" style="stop-color:#852D6E"/>
				<stop  offset="0.8474" style="stop-color:#6B255B"/>
				<stop  offset="0.9572" style="stop-color:#4A1A44"/>
				<stop  offset="0.9954" style="stop-color:#3D163B"/>
			</radialGradient>
			<path style="fill:url(#SVGID_00000104698094186434048130000002929505824083263138_);" d="M1749.5,1465.3
				c-86.9,28.7-174.1,56.2-258,96.5c-90.7,44-163.5,116.8-202,210.2c-27.5,68.7-55,134.6-94.8,199.2
				c-58.6,97.3-127.6,194.5-238.3,227.9c37.4,53.7,84.3,100.3,138.1,137.5c131.6-61.8,253.2-138.1,343.3-262.3
				c28.9-41.2,50.8-79.7,59.1-127.8c8.2-44,16.5-83.8,28.9-125c9.6-30.2,23.4-59.1,42.6-86.6c52.2-75.6,115.4-134.6,200.6-162.1
				c23.2-7.5,50-10.4,75.4-7.4C1817.1,1528.2,1785.2,1494.5,1749.5,1465.3z"/>
			<g>
				<path class="st20" d="M2433.2,1609c-21.1-64-237.2-54.4-551.1,15.3c7.2,13.4,13.9,27.1,20.2,40.5c147.8-17.5,247.1-9.1,261,33.1
					c28.4,86.2-335.5,283.4-711.4,407.2c-375.9,123.8-754.8,171.1-783.1,84.9c-14.6-44.3,68.5-116.2,201.4-191.4
					c-3-14.3-5-28.6-7.2-43.5c-314.3,136.1-517.1,267.5-495.2,334c31.8,96.4,519.8,22.4,1090.2-165.4
					C2028.3,1935.9,2465,1705.5,2433.2,1609z"/>
				<path class="st21" d="M2433.2,1597.7c-21.1-64-242.9-53.1-556.8,16.6c7.2,13.4,14.6,26.4,21,39.9
					c147.8-17.5,252.1-9.7,265.9,32.5c28.4,86.2-335.5,283.4-711.4,407.2c-375.9,123.8-754.8,171.1-783.1,84.9
					c-14.6-44.3,66.4-115.5,199.3-190.7c-2.4-14.4-4.7-28.2-6.3-43.4c-314.3,136.1-515.9,266.7-494,333.2
					c31.8,96.4,519.8,22.4,1090.2-165.4S2465,1694.2,2433.2,1597.7z"/>
			</g>
		</g>
		<g class="st10">
			
				<linearGradient id="SVGID_00000042709151157698768270000005974701930825668771_" gradientUnits="userSpaceOnUse" x1="3625.2402" y1="453.9485" x2="3625.2402" y2="-1376.0634" gradientTransform="matrix(0.9848 0.1739 0.1739 -0.9848 -78.4619 2215.8525)">
				<stop  offset="0" style="stop-color:#FEEAC2"/>
				<stop  offset="0.5068" style="stop-color:#FE62A6"/>
				<stop  offset="1" style="stop-color:#FEEAC2"/>
			</linearGradient>
			<path style="fill:url(#SVGID_00000042709151157698768270000005974701930825668771_);" d="M4273.8,2128.9
				c-3.6-1.9-7.2-3.7-10.9-5.5c-109.9-52.3-244.5-36.9-357.9,8.1c-155.3,61.7-294.3,198-284.4,355.7
				c-157.6-76-377.6,7.6-433.8,164.9c-57.4-62.8-151.2-94.5-238.2-80.5c-86,13.9-162.2,71.9-194.4,147.8h1519.5V2128.9z"/>
		</g>
		<g class="st10">
			
				<linearGradient id="SVGID_00000138563471202873079380000011079653961302055591_" gradientUnits="userSpaceOnUse" x1="1370.0439" y1="455.1739" x2="1370.0439" y2="-1375.875" gradientTransform="matrix(0.9848 0.1739 0.1739 -0.9848 -78.4619 2215.8525)">
				<stop  offset="0" style="stop-color:#FEEAC2"/>
				<stop  offset="0.5068" style="stop-color:#FE62A6"/>
				<stop  offset="1" style="stop-color:#FEEAC2"/>
			</linearGradient>
			<path style="fill:url(#SVGID_00000138563471202873079380000011079653961302055591_);" d="M2751.2,2719.4
				c-76.6-97.6-241.5-121.6-345.6-49.5c34.5-89.5-76.1-194.1-172-162.7c38.4-70.5-11-161.6-85.6-198.9s-164.7-33.5-248.3-20.9
				c-108.3,16.3-239,77-227.3,179.2c-50.9-55.5-163.4-38.6-193.1,28.9c-48.4-59.3-158-60.2-207.4-1.7c-6.5-104.9-79-204-181.2-247.6
				s-229.5-29.9-318.3,34.3c36-67.2,64.2-143.6,45.5-216.8c-18.7-73.2-101-135.8-177.6-113c-33-96-149.6-159.4-254.9-138.8
				c20.5-81.9-11.9-173.5-80.5-227.8s-170.5-69-253.3-36.4c2.1-75.6-47.7-143-115.9-182.4v1354.2H2751.2z"/>
		</g>
		<g>
			
				<ellipse transform="matrix(0.8352 -0.5499 0.5499 0.8352 103.3876 2042.076)" class="st24" cx="3459.2" cy="848.5" rx="291.3" ry="294.2"/>
			
				<radialGradient id="SVGID_00000045610494755303936370000014081920362714234547_" cx="3328.7976" cy="1936.882" r="402.7098" gradientTransform="matrix(1 0 0 -1 0 2701)" gradientUnits="userSpaceOnUse">
				<stop  offset="3.600000e-03" style="stop-color:#E66119"/>
				<stop  offset="0.2773" style="stop-color:#E35F1A"/>
				<stop  offset="0.4494" style="stop-color:#DB5A1C"/>
				<stop  offset="0.5934" style="stop-color:#CC5120"/>
				<stop  offset="0.722" style="stop-color:#B74526"/>
				<stop  offset="0.8403" style="stop-color:#9D342D"/>
				<stop  offset="0.9495" style="stop-color:#7C2036"/>
				<stop  offset="0.9985" style="stop-color:#6B163B"/>
			</radialGradient>
			<path style="fill:url(#SVGID_00000045610494755303936370000014081920362714234547_);" d="M3251.5,985.3
				c-76.3-115.9-45.2-271.2,69.6-346.8c114.8-75.6,269.7-42.8,346,73.1s45.2,271.2-69.6,346.8
				C3482.7,1133.9,3327.8,1101.2,3251.5,985.3z"/>
			<g>
				
					<linearGradient id="SVGID_00000150060341446349992960000018066025584274474429_" gradientUnits="userSpaceOnUse" x1="3237.5193" y1="1666.6771" x2="3422.0061" y2="1798.4534" gradientTransform="matrix(1 0 0 -1 0 2701)">
					<stop  offset="7.630814e-04" style="stop-color:#C73C19"/>
					<stop  offset="0.9985" style="stop-color:#6B163B"/>
				</linearGradient>
				<path style="fill:url(#SVGID_00000150060341446349992960000018066025584274474429_);" d="M3473.4,971.3L3473.4,971.3
					c-7.4-11.3-22.5-14.5-33.7-7.1l-19,12.5c-9.8,6.5-23,3.7-29.6-6.2l0,0c-6.5-9.9-3.9-23.2,5.9-29.6l54-35.5
					c8.5-5.6,10.9-17.2,5.2-25.8l0,0c-5.7-8.6-17.2-11.1-25.7-5.4l-119.7,78.8c-9.6,6.3-22.5,3.6-28.8-6.1l0,0
					c-6.4-9.7-3.8-22.6,5.8-28.9l39.4-26c9.6-6.3,12.1-19.2,5.8-28.9l0,0c-6.4-9.7-19.3-12.4-28.8-6.1l-85.5,56.3
					c6.9,24.9,17.7,49.2,32.7,72c27.3,41.5,64.7,72.3,106.6,91.3l108.6-71.5C3477.8,997.7,3480.9,982.6,3473.4,971.3z"/>
				
					<linearGradient id="SVGID_00000165951205870960510770000004459126182292702599_" gradientUnits="userSpaceOnUse" x1="3367.96" y1="1967.9863" x2="3699.7842" y2="1967.9863" gradientTransform="matrix(1 0 0 -1 0 2701)">
					<stop  offset="7.630814e-04" style="stop-color:#C73C19"/>
					<stop  offset="0.9985" style="stop-color:#6B163B"/>
				</linearGradient>
				<path style="fill:url(#SVGID_00000165951205870960510770000004459126182292702599_);" d="M3372,773.7L3372,773.7
					c7.4,11.3,22.5,14.5,33.7,7.1l117.9-77.6c8.5-5.6,20.1-3.2,25.7,5.4l3.1,4.7c5.7,8.6,3.4,20.2-5.2,25.8l-62.4,41.1
					c-8.5,5.6-10.9,17.2-5.2,25.8l0,0c5.7,8.6,17.2,11.1,25.7,5.4l124.5-82c8.5-5.6,20.1-3.2,25.7,5.4l2.5,3.7
					c5.7,8.6,3.4,20.2-5.2,25.8l-65.3,43c-9.6,6.3-12.1,19.2-5.8,28.9l0,0c6.4,9.7,19.3,12.4,28.8,6.1l89.2-58.7
					c-6.9-24.9-17.7-49.2-32.7-72c-27.3-41.5-64.7-72.3-106.6-91.3l-181.6,119.6C3367.6,747.3,3364.6,762.4,3372,773.7z"/>
			</g>
		</g>
		<g>
			
				<ellipse transform="matrix(0.8352 -0.5499 0.5499 0.8352 -46.0401 1263.1619)" class="st28" cx="2084.7" cy="708.4" rx="139.4" ry="140.8"/>
			<g>
				
					<radialGradient id="SVGID_00000041997323184920710820000016093414917460265900_" cx="2022.3582" cy="2032.9967" r="192.7278" gradientTransform="matrix(1 0 0 -1 0 2701)" gradientUnits="userSpaceOnUse">
					<stop  offset="5.400000e-03" style="stop-color:#61C9A6"/>
					<stop  offset="0.2949" style="stop-color:#60C6A6"/>
					<stop  offset="0.4768" style="stop-color:#5CBEA7"/>
					<stop  offset="0.6291" style="stop-color:#56AFA8"/>
					<stop  offset="0.7651" style="stop-color:#4D9AAA"/>
					<stop  offset="0.8889" style="stop-color:#4180AD"/>
					<stop  offset="1" style="stop-color:#3461B0"/>
				</radialGradient>
				<path style="fill:url(#SVGID_00000041997323184920710820000016093414917460265900_);" d="M1985.3,773.8
					c-36.5-55.5-21.6-129.8,33.3-166c54.9-36.2,129.1-20.5,165.6,35c36.5,55.5,21.6,129.8-33.3,166
					C2096,845,2021.9,829.3,1985.3,773.8z"/>
				
					<radialGradient id="SVGID_00000093868187087205882200000003511247317480464516_" cx="2031.2501" cy="2039.9529" r="145.0044" gradientTransform="matrix(1 0 0 -1 0 2701)" gradientUnits="userSpaceOnUse">
					<stop  offset="6.100000e-03" style="stop-color:#4FB7A6"/>
					<stop  offset="0.3144" style="stop-color:#4EB4A6"/>
					<stop  offset="0.5082" style="stop-color:#4BACA7"/>
					<stop  offset="0.6704" style="stop-color:#479DA9"/>
					<stop  offset="0.8151" style="stop-color:#4088AB"/>
					<stop  offset="0.947" style="stop-color:#386EAE"/>
					<stop  offset="1" style="stop-color:#3461B0"/>
				</radialGradient>
				<path style="fill:url(#SVGID_00000093868187087205882200000003511247317480464516_);" d="M2057.1,681.4
					c0-37.7,41.6-64.4,83.6-78.5c-15.7-8.5-33-13.3-50.6-14.3c-37.4,18.6-72.7,48-90,85.7c-10.7,23.1,23.1,30.2,40.9,40.9
					c7.1,5.3,3.6,12.5,0,17.8c-10.8,21.5-26.9,38.9-44.2,55.7c6.3,6.9,13.3,13,20.7,18.2c31-25.5,59.8-53.3,78.6-89.9
					C2108.7,693.9,2057.1,690.3,2057.1,681.4z"/>
				
					<radialGradient id="SVGID_00000072988634263417128930000016106423324492927910_" cx="2085.6357" cy="2009.9935" r="138.2067" gradientTransform="matrix(1 0 0 -1 0 2701)" gradientUnits="userSpaceOnUse">
					<stop  offset="7.100000e-03" style="stop-color:#4FA2A6"/>
					<stop  offset="0.3454" style="stop-color:#4E9FA6"/>
					<stop  offset="0.558" style="stop-color:#4A97A8"/>
					<stop  offset="0.7359" style="stop-color:#4488AA"/>
					<stop  offset="0.8937" style="stop-color:#3C74AD"/>
					<stop  offset="1" style="stop-color:#3461B0"/>
				</radialGradient>
				<path style="fill:url(#SVGID_00000072988634263417128930000016106423324492927910_);" d="M2192.4,657.3c-2.4-4.9-5-9.7-8.1-14.4
					c-4.9-7.4-10.5-14.1-16.5-20c-21,9.9-39.2,25.3-51.9,44.3c-10.7,16,26.7,19.6,24.9,32c-8.1,51.3-49.1,88.3-88.5,124.2
					c27,7.9,56.5,6.3,83.1-5.9c17.5-25.8,33.2-53.1,48.2-80.9c8.9-16-1.8-32-7.1-46.3C2173.6,678.3,2182,666.3,2192.4,657.3z"/>
			</g>
		</g>
	</g>
</g>
</svg>
