<?xml version="1.0" encoding="utf-8"?>
<!-- Generator: Adobe Illustrator 25.3.1, SVG Export Plug-In . SVG Version: 6.00 Build 0)  -->
<svg version="1.1" id="Layer_1" xmlns="http://www.w3.org/2000/svg" xmlns:xlink="http://www.w3.org/1999/xlink" x="0px" y="0px"
	 viewBox="0 0 418.8 687.8" style="enable-background:new 0 0 418.8 687.8;" xml:space="preserve">
<style type="text/css">
	.st0{fill:#04BEFE;}
	.st1{fill:#FF6C1A;}
</style>
<g id="Layer_2_1_">
	<g id="Layer_1-2">
		<path class="st0" d="M345.2,511.5c9,9,23.6,9,32.6,0c2.4-2.6,4.3-5.7,5.6-9l33.5-100.6c5-14.9,0-36-11.1-47.1l-70.9-70.9
			c17.9-80.7,13.4-160.5-56.4-230.3c-17-17.2-34.2-34.3-60.7-51.4c-4.6-3-12-3-16.6,0c-26.6,17.2-43.7,34.3-60.7,51.3
			C70.3,123.6,65.8,203.1,83.8,284l-70.8,70.7C2,365.8-3,386.9,1.9,401.8l33.5,100.7c1.2,3.3,3.1,6.4,5.6,9c9,9,23.5,9,32.5,0.1
			c0,0,0,0,0.1-0.1l65.1-50.5c41.6-32.3,99.9-32.3,141.5,0L345.2,511.5z M236.6,185.5c-15,15-39.3,15-54.3,0c-15-15-15-39.3,0-54.3
			c15-15,39.3-15,54.3,0C251.6,146.1,251.6,170.5,236.6,185.5C236.6,185.5,236.6,185.5,236.6,185.5L236.6,185.5z"/>
		<path class="st1" d="M212,467.4c-0.8,0-1.7,0-2.5,0c-0.8,0-1.7,0-2.5,0c-58.6,1.7-93.6,66.5-64.1,117.2l56.7,97.5
			c3.2,5.4,10.1,7.3,15.6,4.1c1.7-1,3.1-2.4,4.1-4.1l56.7-97.5C305.5,533.9,270.6,469.1,212,467.4z M230.7,560.2l-18,31
			c-1,1.7-3.2,2.3-5,1.3c-0.5-0.3-1-0.8-1.3-1.3l-18-31c-9.4-16.1,1.7-36.8,20.4-37.3h1.6C228.9,523.5,240,544.1,230.7,560.2
			L230.7,560.2z"/>
	</g>
</g>
</svg>
