<?xml version="1.0" encoding="utf-8"?>
<!-- Generator: Adobe Illustrator 25.3.1, SVG Export Plug-In . SVG Version: 6.00 Build 0)  -->
<svg version="1.1" id="Layer_1" xmlns="http://www.w3.org/2000/svg" xmlns:xlink="http://www.w3.org/1999/xlink" x="0px" y="0px"
	 viewBox="0 0 418.8 518.2" style="enable-background:new 0 0 418.8 518.2;" xml:space="preserve">
<style type="text/css">
	.st0{fill:#04BEFE;}
</style>
<g id="Layer_2_1_">
	<g>
		<g>
			<g id="Layer_1-2_9_">
				<path class="st0" d="M217.4,2.2c-4.6-3-12-3-16.6,0c-26.6,17.2-43.7,34.3-60.7,51.3C70,123.6,65.5,203.1,83.5,284l-70.8,70.7
					c-11,11.1-16,32.2-11.1,47.1l33.5,100.7c1.2,3.3,3.1,6.4,5.6,9c9,9,23.5,9,32.5,0.1c0,0,0,0,0.1-0.1l70.5-70.5v30.5
					c0,15.4,13.1,30.7,30.7,30.7h69.1c15.2,0,30.8-12.9,30.7-30.7V441l70.5,70.5c9,9,23.6,9,32.6,0c2.4-2.6,4.3-5.7,5.6-9
					l33.5-100.6c5-14.9,0-36-11.1-47.1l-70.9-70.9c17.9-80.7,13.4-160.5-56.4-230.3C261.1,36.5,244,19.4,217.4,2.2z M236.3,185.5
					c-15,15-39.3,15-54.3,0s-15-39.3,0-54.3s39.3-15,54.3,0S251.3,170.5,236.3,185.5z"/>
			</g>
		</g>
	</g>
</g>
</svg>
