<svg xmlns="http://www.w3.org/2000/svg" xmlns:xlink="http://www.w3.org/1999/xlink" viewBox="0 0 82.38 40.27"><defs><style>.cls-1{mask:url(#mask);filter:url(#luminosity-noclip-20);}.cls-10,.cls-13,.cls-16,.cls-18,.cls-2,.cls-20,.cls-23,.cls-25,.cls-27,.cls-4,.cls-43,.cls-47,.cls-6,.cls-62,.cls-66,.cls-67,.cls-71,.cls-73,.cls-74,.cls-75,.cls-78,.cls-8,.cls-80,.cls-82{mix-blend-mode:multiply;}.cls-2{fill:url(#radial-gradient);}.cls-11,.cls-3{mask:url(#mask-2);}.cls-4{fill:url(#radial-gradient-2);}.cls-28,.cls-5{mask:url(#mask-3);}.cls-6{fill:url(#radial-gradient-3);}.cls-42,.cls-7{mask:url(#mask-4);}.cls-7{filter:url(#luminosity-noclip-27);}.cls-8{fill:url(#radial-gradient-4);}.cls-46,.cls-9{mask:url(#mask-5);}.cls-9{filter:url(#luminosity-noclip-29);}.cls-10{fill:url(#radial-gradient-5);}.cls-11{filter:url(#luminosity-noclip-21);}.cls-12,.cls-14{mask:url(#mask-7);}.cls-12{filter:url(#luminosity-noclip-31);}.cls-13{fill:url(#radial-gradient-7);}.cls-15{mask:url(#mask-9);filter:url(#luminosity-noclip-33);}.cls-16{fill:url(#radial-gradient-9);}.cls-17,.cls-21{mask:url(#mask-10);}.cls-17{filter:url(#luminosity-noclip-34);}.cls-18{fill:url(#radial-gradient-10);}.cls-19{mask:url(#mask-12);filter:url(#luminosity-noclip-36);}.cls-20{fill:url(#radial-gradient-12);}.cls-22{mask:url(#mask-14);filter:url(#luminosity-noclip-38);}.cls-23{fill:url(#radial-gradient-14);}.cls-24{mask:url(#mask-15);filter:url(#luminosity-noclip-39);}.cls-25{fill:url(#radial-gradient-15);}.cls-26{mask:url(#mask-16);filter:url(#luminosity-noclip-40);}.cls-27{fill:url(#radial-gradient-16);}.cls-28{filter:url(#luminosity-noclip-23);}.cls-29{isolation:isolate;}.cls-30{fill:#aaacae;}.cls-31{fill:#535557;}.cls-32,.cls-62{fill:#717375;}.cls-32,.cls-68,.cls-69,.cls-81,.cls-84,.cls-86{mix-blend-mode:screen;}.cls-33{mask:url(#mask-20);}.cls-34{fill:url(#radial-gradient-20);}.cls-35{mask:url(#mask-21);}.cls-36{fill:url(#radial-gradient-21);}.cls-37{mask:url(#mask-23);}.cls-38{fill:url(#radial-gradient-23);}.cls-39{fill:url(#radial-gradient-27);}.cls-40{mask:url(#mask-27);}.cls-41{fill:url(#radial-gradient-28);}.cls-43{fill:url(#radial-gradient-29);}.cls-44{mask:url(#mask-29);}.cls-45{fill:url(#radial-gradient-30);}.cls-47{fill:url(#radial-gradient-31);}.cls-48{mask:url(#mask-31);}.cls-49{fill:url(#radial-gradient-32);}.cls-50{mask:url(#mask-33);}.cls-51{fill:url(#radial-gradient-34);}.cls-52{mask:url(#mask-34);}.cls-53{fill:url(#radial-gradient-35);}.cls-54{mask:url(#mask-36);}.cls-55{fill:url(#radial-gradient-37);}.cls-56{mask:url(#mask-38);}.cls-57{fill:url(#radial-gradient-39);}.cls-58{mask:url(#mask-39);}.cls-59{fill:url(#radial-gradient-40);}.cls-60{mask:url(#mask-40);}.cls-61{fill:url(#radial-gradient-41);}.cls-63,.cls-68,.cls-69,.cls-71,.cls-86{fill:#ebebec;}.cls-64{fill:#818386;}.cls-65,.cls-66,.cls-67,.cls-73{fill:#d9d9db;}.cls-66{opacity:0.8;}.cls-68{opacity:0.7;}.cls-70{fill:#b1b2b4;}.cls-72{fill:#d3d4d5;}.cls-73,.cls-78,.cls-86{opacity:0.5;}.cls-74,.cls-78{fill:#c9cacc;}.cls-75{fill:#c7c8ca;}.cls-76{fill:#2a416f;}.cls-77,.cls-81{fill:#fff;}.cls-79{fill:url(#Fading_Sky);}.cls-80{fill:url(#radial-gradient-42);}.cls-81{opacity:0.1;}.cls-82{fill:#c6c8d0;}.cls-83{fill:url(#Fading_Sky-2);}.cls-84{fill:#6b6c6f;}.cls-85{fill:#bebfc1;}.cls-87{filter:url(#luminosity-noclip-16);}.cls-88{filter:url(#luminosity-noclip-15);}.cls-89{filter:url(#luminosity-noclip-14);}.cls-90{filter:url(#luminosity-noclip-12);}.cls-91{filter:url(#luminosity-noclip-10);}.cls-92{filter:url(#luminosity-noclip-9);}.cls-93{filter:url(#luminosity-noclip-7);}.cls-94{filter:url(#luminosity-noclip-5);}.cls-95{filter:url(#luminosity-noclip-4);}.cls-96{filter:url(#luminosity-noclip-3);}.cls-97{filter:url(#luminosity-noclip-2);}.cls-98{filter:url(#luminosity-noclip);}</style><filter id="luminosity-noclip" x="58.18" y="-8185.76" width="0.45" height="32766" filterUnits="userSpaceOnUse" color-interpolation-filters="sRGB"><feFlood flood-color="#fff" result="bg"/><feBlend in="SourceGraphic" in2="bg"/></filter><mask id="mask" x="58.18" y="-8185.76" width="0.45" height="32766" maskUnits="userSpaceOnUse"><g class="cls-98"/></mask><radialGradient id="radial-gradient" cx="-3525.38" cy="5.65" r="0.41" gradientTransform="translate(3583.73)" gradientUnits="userSpaceOnUse"><stop offset="0.25" stop-color="#fff"/><stop offset="0.35" stop-color="#d1d1d1"/><stop offset="0.53" stop-color="#888"/><stop offset="0.69" stop-color="#4e4e4e"/><stop offset="0.82" stop-color="#232323"/><stop offset="0.93" stop-color="#0a0a0a"/><stop offset="0.99"/></radialGradient><filter id="luminosity-noclip-2" x="63.68" y="-8185.76" width="0.45" height="32766" filterUnits="userSpaceOnUse" color-interpolation-filters="sRGB"><feFlood flood-color="#fff" result="bg"/><feBlend in="SourceGraphic" in2="bg"/></filter><mask id="mask-2" x="63.68" y="-8185.76" width="0.45" height="32766" maskUnits="userSpaceOnUse"><g class="cls-97"/></mask><radialGradient id="radial-gradient-2" cx="-3519.88" cy="19.38" r="0.41" xlink:href="#radial-gradient"/><filter id="luminosity-noclip-3" x="58.93" y="-8185.76" width="0.45" height="32766" filterUnits="userSpaceOnUse" color-interpolation-filters="sRGB"><feFlood flood-color="#fff" result="bg"/><feBlend in="SourceGraphic" in2="bg"/></filter><mask id="mask-3" x="58.93" y="-8185.76" width="0.45" height="32766" maskUnits="userSpaceOnUse"><g class="cls-96"/></mask><radialGradient id="radial-gradient-3" cx="-3524.64" cy="20.8" r="0.41" xlink:href="#radial-gradient"/><filter id="luminosity-noclip-4" x="71.6" y="-8185.76" width="2.27" height="32766" filterUnits="userSpaceOnUse" color-interpolation-filters="sRGB"><feFlood flood-color="#fff" result="bg"/><feBlend in="SourceGraphic" in2="bg"/></filter><mask id="mask-4" x="71.6" y="-8185.76" width="2.27" height="32766" maskUnits="userSpaceOnUse"><g class="cls-95"/></mask><radialGradient id="radial-gradient-4" cx="72.73" cy="20.3" r="1.13" gradientUnits="userSpaceOnUse"><stop offset="0" stop-color="#fff"/><stop offset="0.09" stop-color="#f9f9f9"/><stop offset="0.22" stop-color="#e7e7e7"/><stop offset="0.36" stop-color="#c9c9c9"/><stop offset="0.53" stop-color="#a0a0a0"/><stop offset="0.7" stop-color="#6b6b6b"/><stop offset="0.89" stop-color="#2b2b2b"/><stop offset="1"/></radialGradient><filter id="luminosity-noclip-5" x="72.14" y="-8185.76" width="1.19" height="32766" filterUnits="userSpaceOnUse" color-interpolation-filters="sRGB"><feFlood flood-color="#fff" result="bg"/><feBlend in="SourceGraphic" in2="bg"/></filter><mask id="mask-5" x="72.14" y="-8185.76" width="1.19" height="32766" maskUnits="userSpaceOnUse"><g class="cls-94"/></mask><radialGradient id="radial-gradient-5" cx="72.73" cy="20.3" r="0.59" xlink:href="#radial-gradient-4"/><filter id="luminosity-noclip-7" x="79.31" y="-8185.76" width="0.47" height="32766" filterUnits="userSpaceOnUse" color-interpolation-filters="sRGB"><feFlood flood-color="#fff" result="bg"/><feBlend in="SourceGraphic" in2="bg"/></filter><mask id="mask-7" x="79.31" y="-8185.76" width="0.47" height="32766" maskUnits="userSpaceOnUse"><g class="cls-93"/></mask><radialGradient id="radial-gradient-7" cx="-2994.58" cy="706.78" r="0.41" gradientTransform="translate(2659.72 -1647.91) rotate(-19.73)" xlink:href="#radial-gradient"/><filter id="luminosity-noclip-9" x="75.31" y="-8185.76" width="0.47" height="32766" filterUnits="userSpaceOnUse" color-interpolation-filters="sRGB"><feFlood flood-color="#fff" result="bg"/><feBlend in="SourceGraphic" in2="bg"/></filter><mask id="mask-9" x="75.31" y="-8185.76" width="0.47" height="32766" maskUnits="userSpaceOnUse"><g class="cls-92"/></mask><radialGradient id="radial-gradient-9" cx="-2999.34" cy="708.19" r="0.41" gradientTransform="translate(2659.72 -1647.91) rotate(-19.73)" xlink:href="#radial-gradient"/><filter id="luminosity-noclip-10" x="68.1" y="-8185.76" width="0.37" height="32766" filterUnits="userSpaceOnUse" color-interpolation-filters="sRGB"><feFlood flood-color="#fff" result="bg"/><feBlend in="SourceGraphic" in2="bg"/></filter><mask id="mask-10" x="68.1" y="-8185.76" width="0.37" height="32766" maskUnits="userSpaceOnUse"><g class="cls-91"/></mask><radialGradient id="radial-gradient-10" cx="-3005.17" cy="703.02" r="0.33" gradientTransform="translate(2659.72 -1647.91) rotate(-19.73)" xlink:href="#radial-gradient"/><filter id="luminosity-noclip-12" x="79.88" y="-8185.76" width="0.47" height="32766" filterUnits="userSpaceOnUse" color-interpolation-filters="sRGB"><feFlood flood-color="#fff" result="bg"/><feBlend in="SourceGraphic" in2="bg"/></filter><mask id="mask-12" x="79.88" y="-8185.76" width="0.47" height="32766" maskUnits="userSpaceOnUse"><g class="cls-90"/></mask><radialGradient id="radial-gradient-12" cx="-2996.8" cy="714.66" r="0.41" gradientTransform="translate(2659.72 -1647.91) rotate(-19.73)" xlink:href="#radial-gradient"/><filter id="luminosity-noclip-14" x="78.12" y="-8185.76" width="0.29" height="32766" filterUnits="userSpaceOnUse" color-interpolation-filters="sRGB"><feFlood flood-color="#fff" result="bg"/><feBlend in="SourceGraphic" in2="bg"/></filter><mask id="mask-14" x="78.12" y="-8185.76" width="0.29" height="32766" maskUnits="userSpaceOnUse"><g class="cls-89"/></mask><radialGradient id="radial-gradient-14" cx="-2992.78" cy="698.08" r="0.26" gradientTransform="translate(2659.72 -1647.91) rotate(-19.73)" xlink:href="#radial-gradient"/><filter id="luminosity-noclip-15" x="70.51" y="-8185.76" width="0.29" height="32766" filterUnits="userSpaceOnUse" color-interpolation-filters="sRGB"><feFlood flood-color="#fff" result="bg"/><feBlend in="SourceGraphic" in2="bg"/></filter><mask id="mask-15" x="70.51" y="-8185.76" width="0.29" height="32766" maskUnits="userSpaceOnUse"><g class="cls-88"/></mask><radialGradient id="radial-gradient-15" cx="-3000.8" cy="697.89" r="0.26" gradientTransform="translate(2659.72 -1647.91) rotate(-19.73)" xlink:href="#radial-gradient"/><filter id="luminosity-noclip-16" x="58.1" y="-8185.76" width="0.35" height="32766" filterUnits="userSpaceOnUse" color-interpolation-filters="sRGB"><feFlood flood-color="#fff" result="bg"/><feBlend in="SourceGraphic" in2="bg"/></filter><mask id="mask-16" x="58.1" y="-8185.76" width="0.35" height="32766" maskUnits="userSpaceOnUse"><g class="cls-87"/></mask><radialGradient id="radial-gradient-16" cx="-3005.79" cy="675.11" r="0.31" gradientTransform="translate(2659.72 -1647.91) rotate(-19.73)" xlink:href="#radial-gradient"/><filter id="luminosity-noclip-20" x="58.18" y="5.42" width="0.45" height="0.59" filterUnits="userSpaceOnUse" color-interpolation-filters="sRGB"><feFlood flood-color="#fff" result="bg"/><feBlend in="SourceGraphic" in2="bg"/></filter><mask id="mask-20" x="58.18" y="5.42" width="0.45" height="0.59" maskUnits="userSpaceOnUse"><g class="cls-1"><path class="cls-2" d="M58.63,5.72c0,.17-.1.3-.22.3s-.23-.13-.23-.3.1-.3.23-.3S58.63,5.56,58.63,5.72Z"/></g></mask><radialGradient id="radial-gradient-20" cx="-3525.38" cy="5.65" r="0.41" gradientTransform="translate(3583.73)" gradientUnits="userSpaceOnUse"><stop offset="0.25" stop-color="#ffe358"/><stop offset="0.36" stop-color="#ffe878"/><stop offset="0.58" stop-color="#fff2b2"/><stop offset="0.76" stop-color="#fff9dc"/><stop offset="0.91" stop-color="#fffdf5"/><stop offset="0.99" stop-color="#fff"/></radialGradient><filter id="luminosity-noclip-21" x="63.68" y="19.16" width="0.45" height="0.59" filterUnits="userSpaceOnUse" color-interpolation-filters="sRGB"><feFlood flood-color="#fff" result="bg"/><feBlend in="SourceGraphic" in2="bg"/></filter><mask id="mask-21" x="63.68" y="19.16" width="0.45" height="0.59" maskUnits="userSpaceOnUse"><g class="cls-11"><path class="cls-4" d="M64.13,19.46a.23.23,0,1,1-.45,0c0-.17.1-.3.23-.3S64.13,19.29,64.13,19.46Z"/></g></mask><radialGradient id="radial-gradient-21" cx="-3519.88" cy="19.38" r="0.41" xlink:href="#radial-gradient-20"/><filter id="luminosity-noclip-23" x="58.93" y="20.57" width="0.45" height="0.59" filterUnits="userSpaceOnUse" color-interpolation-filters="sRGB"><feFlood flood-color="#fff" result="bg"/><feBlend in="SourceGraphic" in2="bg"/></filter><mask id="mask-23" x="58.93" y="20.57" width="0.45" height="0.59" maskUnits="userSpaceOnUse"><g class="cls-28"><path class="cls-6" d="M59.37,20.87a.23.23,0,1,1-.44,0c0-.16.1-.3.22-.3S59.37,20.71,59.37,20.87Z"/></g></mask><radialGradient id="radial-gradient-23" cx="-3524.64" cy="20.8" r="0.41" xlink:href="#radial-gradient-20"/><radialGradient id="radial-gradient-27" cx="72.74" cy="20.25" r="0.66" gradientUnits="userSpaceOnUse"><stop offset="0" stop-color="#fff"/><stop offset="0.99" stop-color="#fff"/></radialGradient><filter id="luminosity-noclip-27" x="71.6" y="19.17" width="2.27" height="2.27" filterUnits="userSpaceOnUse" color-interpolation-filters="sRGB"><feFlood flood-color="#fff" result="bg"/><feBlend in="SourceGraphic" in2="bg"/></filter><mask id="mask-27" x="71.6" y="19.17" width="2.27" height="2.27" maskUnits="userSpaceOnUse"><g class="cls-7"><path class="cls-8" d="M73.87,20.3a1.14,1.14,0,1,1-1.14-1.13A1.14,1.14,0,0,1,73.87,20.3Z"/></g></mask><radialGradient id="radial-gradient-28" cx="72.73" cy="20.3" r="1.13" gradientUnits="userSpaceOnUse"><stop offset="0" stop-color="#fff"/><stop offset="1" stop-color="#fff"/></radialGradient><radialGradient id="radial-gradient-29" cx="72.73" cy="20.3" r="1.13" gradientUnits="userSpaceOnUse"><stop offset="0" stop-color="gray"/><stop offset="0.14" stop-color="#7a7a7a"/><stop offset="0.34" stop-color="#686868"/><stop offset="0.57" stop-color="#4a4a4a"/><stop offset="0.82" stop-color="#212121"/><stop offset="1"/></radialGradient><filter id="luminosity-noclip-29" x="72.14" y="19.71" width="1.19" height="1.19" filterUnits="userSpaceOnUse" color-interpolation-filters="sRGB"><feFlood flood-color="#fff" result="bg"/><feBlend in="SourceGraphic" in2="bg"/></filter><mask id="mask-29" x="72.14" y="19.71" width="1.19" height="1.19" maskUnits="userSpaceOnUse"><g class="cls-9"><path class="cls-10" d="M73.33,20.3a.6.6,0,1,1-.6-.59A.6.6,0,0,1,73.33,20.3Z"/></g></mask><radialGradient id="radial-gradient-30" cx="72.73" cy="20.3" r="0.59" xlink:href="#radial-gradient-28"/><radialGradient id="radial-gradient-31" cx="72.73" cy="20.3" r="0.59" xlink:href="#radial-gradient-29"/><filter id="luminosity-noclip-31" x="79.31" y="27.82" width="0.47" height="0.58" filterUnits="userSpaceOnUse" color-interpolation-filters="sRGB"><feFlood flood-color="#fff" result="bg"/><feBlend in="SourceGraphic" in2="bg"/></filter><mask id="mask-31" x="79.31" y="27.82" width="0.47" height="0.58" maskUnits="userSpaceOnUse"><g class="cls-12"><path class="cls-13" d="M79.75,28a.26.26,0,0,1-.11.36c-.11,0-.25-.05-.31-.21a.27.27,0,0,1,.11-.35A.27.27,0,0,1,79.75,28Z"/></g></mask><radialGradient id="radial-gradient-32" cx="-2994.58" cy="706.78" r="0.41" gradientTransform="translate(2659.72 -1647.91) rotate(-19.73)" xlink:href="#radial-gradient-20"/><filter id="luminosity-noclip-33" x="75.31" y="30.75" width="0.47" height="0.58" filterUnits="userSpaceOnUse" color-interpolation-filters="sRGB"><feFlood flood-color="#fff" result="bg"/><feBlend in="SourceGraphic" in2="bg"/></filter><mask id="mask-33" x="75.31" y="30.75" width="0.47" height="0.58" maskUnits="userSpaceOnUse"><g class="cls-15"><path class="cls-16" d="M75.75,31a.26.26,0,0,1-.11.35c-.11,0-.25-.05-.31-.2a.28.28,0,0,1,.11-.36A.26.26,0,0,1,75.75,31Z"/></g></mask><radialGradient id="radial-gradient-34" cx="-2999.34" cy="708.19" r="0.41" gradientTransform="translate(2659.72 -1647.91) rotate(-19.73)" xlink:href="#radial-gradient-20"/><filter id="luminosity-noclip-34" x="68.1" y="27.9" width="0.37" height="0.46" filterUnits="userSpaceOnUse" color-interpolation-filters="sRGB"><feFlood flood-color="#fff" result="bg"/><feBlend in="SourceGraphic" in2="bg"/></filter><mask id="mask-34" x="68.1" y="27.9" width="0.37" height="0.46" maskUnits="userSpaceOnUse"><g class="cls-17"><path class="cls-18" d="M68.45,28.07a.21.21,0,0,1-.08.28c-.09,0-.21,0-.25-.16a.22.22,0,0,1,.09-.28A.21.21,0,0,1,68.45,28.07Z"/></g></mask><radialGradient id="radial-gradient-35" cx="-3005.17" cy="703.02" r="0.33" gradientTransform="translate(2659.72 -1647.91) rotate(-19.73)" xlink:href="#radial-gradient-20"/><filter id="luminosity-noclip-36" x="79.88" y="35.99" width="0.47" height="0.58" filterUnits="userSpaceOnUse" color-interpolation-filters="sRGB"><feFlood flood-color="#fff" result="bg"/><feBlend in="SourceGraphic" in2="bg"/></filter><mask id="mask-36" x="79.88" y="35.99" width="0.47" height="0.58" maskUnits="userSpaceOnUse"><g class="cls-19"><path class="cls-20" d="M80.32,36.2a.26.26,0,0,1-.11.36c-.11,0-.25-.05-.31-.21A.27.27,0,0,1,80,36,.27.27,0,0,1,80.32,36.2Z"/></g></mask><radialGradient id="radial-gradient-37" cx="-2996.8" cy="714.66" r="0.41" gradientTransform="translate(2659.72 -1647.91) rotate(-19.73)" xlink:href="#radial-gradient-20"/><filter id="luminosity-noclip-38" x="78.12" y="19.11" width="0.29" height="0.36" filterUnits="userSpaceOnUse" color-interpolation-filters="sRGB"><feFlood flood-color="#fff" result="bg"/><feBlend in="SourceGraphic" in2="bg"/></filter><mask id="mask-38" x="78.12" y="19.11" width="0.29" height="0.36" maskUnits="userSpaceOnUse"><g class="cls-22"><path class="cls-23" d="M78.4,19.24a.17.17,0,0,1-.07.23.18.18,0,0,1-.19-.13.17.17,0,0,1,.07-.23A.18.18,0,0,1,78.4,19.24Z"/></g></mask><radialGradient id="radial-gradient-39" cx="-2992.78" cy="698.08" r="0.26" gradientTransform="translate(2659.72 -1647.91) rotate(-19.73)" xlink:href="#radial-gradient-20"/><filter id="luminosity-noclip-39" x="70.51" y="21.64" width="0.29" height="0.36" filterUnits="userSpaceOnUse" color-interpolation-filters="sRGB"><feFlood flood-color="#fff" result="bg"/><feBlend in="SourceGraphic" in2="bg"/></filter><mask id="mask-39" x="70.51" y="21.64" width="0.29" height="0.36" maskUnits="userSpaceOnUse"><g class="cls-24"><path class="cls-25" d="M70.79,21.77a.18.18,0,0,1-.07.23.2.2,0,0,1-.12-.36A.18.18,0,0,1,70.79,21.77Z"/></g></mask><radialGradient id="radial-gradient-40" cx="-3000.8" cy="697.89" r="0.26" gradientTransform="translate(2659.72 -1647.91) rotate(-19.73)" xlink:href="#radial-gradient-20"/><filter id="luminosity-noclip-40" x="58.1" y="1.85" width="0.35" height="0.44" filterUnits="userSpaceOnUse" color-interpolation-filters="sRGB"><feFlood flood-color="#fff" result="bg"/><feBlend in="SourceGraphic" in2="bg"/></filter><mask id="mask-40" x="58.1" y="1.85" width="0.35" height="0.44" maskUnits="userSpaceOnUse"><g class="cls-26"><path class="cls-27" d="M58.44,2a.2.2,0,0,1-.09.27c-.08,0-.19,0-.23-.16a.2.2,0,0,1,.08-.26C58.29,1.83,58.39,1.89,58.44,2Z"/></g></mask><radialGradient id="radial-gradient-41" cx="-3005.79" cy="675.11" r="0.31" gradientTransform="translate(2659.72 -1647.91) rotate(-19.73)" xlink:href="#radial-gradient-20"/><linearGradient id="Fading_Sky" x1="366.13" y1="-66.76" x2="375.15" y2="-66.76" gradientTransform="translate(-244.08 225.1) rotate(-25.39)" gradientUnits="userSpaceOnUse"><stop offset="0" stop-color="#2580c3"/><stop offset="1" stop-color="#2580c3"/></linearGradient><radialGradient id="radial-gradient-42" cx="370.41" cy="-73.32" r="11.7" gradientTransform="translate(-244.08 225.1) rotate(-25.39)" gradientUnits="userSpaceOnUse"><stop offset="0.28" stop-color="#21687e"/><stop offset="0.42" stop-color="#0d3b59"/><stop offset="0.59" stop-color="#05294a"/><stop offset="0.71" stop-color="#031b31"/><stop offset="0.9" stop-color="#01070d"/><stop offset="1"/></radialGradient><linearGradient id="Fading_Sky-2" x1="371.42" y1="-59.55" x2="371.42" y2="-56.54" xlink:href="#Fading_Sky"/></defs><g class="cls-29"><g id="Layer_2" data-name="Layer 2"><g id="Layer_1-2" data-name="Layer 1"><path class="cls-30" d="M.59,35.06l.54-.72c.35-.47.89-1.15,1.6-2a32.19,32.19,0,0,1,2.76-2.82c.57-.49,1.19-1,1.88-1.51A20,20,0,0,1,9.64,26.6a15.85,15.85,0,0,1,5.68-1.79,17.92,17.92,0,0,1,6.65.56A34.19,34.19,0,0,1,28.69,28c1.1.56,2.2,1.16,3.31,1.76s2.21,1.22,3.36,1.79c.57.28,1.15.55,1.75.79.31.12.61.23.92.33s.63.17.94.25l.48.1.47.08c.33,0,.65.1,1,.11a10.48,10.48,0,0,0,1.94,0,10,10,0,0,0,1.88-.39l.46-.16.22-.08.22-.1.44-.19.42-.23A9.86,9.86,0,0,0,48,31a8.22,8.22,0,0,0,.69-.62c.12-.11.22-.23.32-.34a3.28,3.28,0,0,0,.31-.34,13.34,13.34,0,0,0,1.92-3,17.31,17.31,0,0,0,1.09-3.23,21.54,21.54,0,0,0,.49-3.18c0-.26,0-.52,0-.77s0-.51,0-.76,0-.49,0-.73,0-.23,0-.35l0-.34a7.9,7.9,0,0,1,.62-2.52A4.12,4.12,0,0,1,55,13.08a4.47,4.47,0,0,1,1.86-.65,7.25,7.25,0,0,1,1.75,0,11.75,11.75,0,0,1,2.41.6l.61.24.2.09.32-.66-.07,0-.16-.07-.65-.26a11.94,11.94,0,0,0-2.57-.63,8.09,8.09,0,0,0-1.92,0,5.2,5.2,0,0,0-2.19.77,4.86,4.86,0,0,0-1.68,2,8.6,8.6,0,0,0-.68,2.76l0,.36c0,.13,0,.25,0,.37l0,.75c0,.24,0,.49,0,.73s0,.5,0,.75a21,21,0,0,1-.47,3.07,16,16,0,0,1-1,3.1,12.26,12.26,0,0,1-1.81,2.85,2.92,2.92,0,0,1-.28.32l-.3.32c-.21.19-.42.4-.65.58a8.49,8.49,0,0,1-1.44,1l-.38.21-.41.18-.2.09-.21.07c-.14.05-.27.11-.42.15a9.29,9.29,0,0,1-1.74.37,9.94,9.94,0,0,1-1.81,0c-.3,0-.6-.06-.9-.1l-.45-.08c-.15,0-.31-.05-.45-.09a15,15,0,0,1-3.46-1.32c-1.12-.55-2.22-1.17-3.33-1.77S30.13,28,29,27.39a35.28,35.28,0,0,0-6.86-2.73,21.61,21.61,0,0,0-3.5-.62,17.72,17.72,0,0,0-3.42,0A16.65,16.65,0,0,0,9.3,26,18.45,18.45,0,0,0,7,27.43C6.23,27.94,5.59,28.48,5,29a31.12,31.12,0,0,0-2.83,2.89c-.72.85-1.26,1.54-1.62,2L0,34.63Z"/><path class="cls-31" d="M.61,35.07l.53-.72c.36-.47.89-1.15,1.6-2A29.62,29.62,0,0,1,5.5,29.55c.57-.5,1.19-1,1.88-1.52a21.44,21.44,0,0,1,2.27-1.41,15.73,15.73,0,0,1,5.68-1.79,18.09,18.09,0,0,1,6.64.55,34.79,34.79,0,0,1,6.71,2.68c1.1.55,2.2,1.15,3.31,1.76S34.21,31,35.35,31.6c.57.29,1.16.56,1.76.8.3.11.6.23.92.32s.62.17.94.26c.15,0,.32.06.47.09s.32.07.48.09c.32,0,.64.1,1,.11a10.49,10.49,0,0,0,1.94,0,11.15,11.15,0,0,0,1.89-.4,4,4,0,0,0,.45-.16l.23-.08.22-.09.43-.2.43-.22A9.28,9.28,0,0,0,48,31c.25-.19.47-.41.7-.62s.21-.23.31-.34a3.28,3.28,0,0,0,.31-.34,13,13,0,0,0,1.92-3,17.44,17.44,0,0,0,1.1-3.24,22.72,22.72,0,0,0,.49-3.18c0-.26,0-.52,0-.77s0-.51,0-.76,0-.49,0-.73l0-.35c0-.11,0-.23,0-.34a7.52,7.52,0,0,1,.61-2.51A4,4,0,0,1,55,13.1a4.29,4.29,0,0,1,1.85-.65,6.69,6.69,0,0,1,1.74,0,11.68,11.68,0,0,1,2.41.59c.27.1.48.19.61.25l.2.08.09-.18-.21-.09-.62-.24a11.19,11.19,0,0,0-2.45-.61,7.08,7.08,0,0,0-1.79,0,4.62,4.62,0,0,0-1.94.68,4.21,4.21,0,0,0-1.49,1.79,7.88,7.88,0,0,0-.63,2.58c0,.12,0,.23,0,.35l0,.36c0,.24,0,.47,0,.72s0,.5,0,.76,0,.51,0,.76a21.08,21.08,0,0,1-.49,3.16,17,17,0,0,1-1.08,3.2,12.91,12.91,0,0,1-1.89,3c-.09.12-.2.23-.3.34s-.2.22-.32.33-.43.42-.67.61a9.37,9.37,0,0,1-1.53,1l-.41.22-.43.19-.22.1-.22.08c-.14,0-.29.11-.44.15a9.66,9.66,0,0,1-1.85.39,10.15,10.15,0,0,1-1.91,0c-.32,0-.63-.07-.95-.11l-.47-.08-.47-.1a15.29,15.29,0,0,1-3.57-1.36c-1.14-.56-2.25-1.17-3.36-1.78s-2.2-1.2-3.31-1.76A34.92,34.92,0,0,0,22,25.19a18.08,18.08,0,0,0-6.72-.56,16,16,0,0,0-5.75,1.81,19.29,19.29,0,0,0-2.28,1.43,24.32,24.32,0,0,0-1.9,1.53,30,30,0,0,0-2.78,2.83c-.72.84-1.25,1.53-1.6,2L.44,35Z"/><path class="cls-32" d="M.25,34.82l.55-.73c.35-.48.89-1.16,1.61-2a33.14,33.14,0,0,1,2.8-2.86c.58-.5,1.21-1,1.92-1.54a21.24,21.24,0,0,1,2.31-1.45,16.35,16.35,0,0,1,5.84-1.84,17,17,0,0,1,3.35,0,20,20,0,0,1,3.45.62,34.8,34.8,0,0,1,6.79,2.7c1.12.56,2.22,1.16,3.33,1.77s2.21,1.21,3.34,1.78a16,16,0,0,0,3.53,1.33,3.41,3.41,0,0,0,.46.1l.46.08c.31,0,.62.09.93.1a10.5,10.5,0,0,0,1.86,0,11,11,0,0,0,1.81-.38c.15,0,.29-.1.43-.15l.22-.08.21-.09.41-.19.41-.21a9.48,9.48,0,0,0,1.48-1c.24-.19.45-.4.67-.6s.2-.22.31-.32l.29-.33a12.82,12.82,0,0,0,1.86-2.93A17.31,17.31,0,0,0,52,23.35a21.61,21.61,0,0,0,.47-3.12c0-.25,0-.5,0-.75s0-.5,0-.75,0-.49,0-.73,0-.24,0-.37,0-.24,0-.35a7.82,7.82,0,0,1,.65-2.65,4.42,4.42,0,0,1,1.57-1.9,4.9,4.9,0,0,1,2-.71,7.55,7.55,0,0,1,1.85,0,11.53,11.53,0,0,1,2.5.62c.56.2.85.34.85.34l.09-.18-.23-.1-.64-.25a11.71,11.71,0,0,0-2.55-.63,7.39,7.39,0,0,0-1.89,0,4.93,4.93,0,0,0-2.13.75,4.7,4.7,0,0,0-1.64,2,8.3,8.3,0,0,0-.67,2.72c0,.12,0,.24,0,.36s0,.25,0,.37,0,.49,0,.74,0,.49,0,.74,0,.5-.05.75a20.12,20.12,0,0,1-.47,3.09,16.76,16.76,0,0,1-1,3.11,12.8,12.8,0,0,1-1.83,2.89c-.09.11-.19.21-.29.32l-.3.32c-.21.2-.42.4-.65.58a8.58,8.58,0,0,1-1.46,1l-.39.21-.41.19-.21.08-.21.08-.42.15a9.77,9.77,0,0,1-1.77.37,10.16,10.16,0,0,1-1.83,0c-.3,0-.61-.06-.91-.1l-.46-.08-.45-.09A16,16,0,0,1,35.63,31c-1.12-.56-2.23-1.18-3.34-1.78S30.08,28.05,29,27.49a35,35,0,0,0-6.83-2.72,21.38,21.38,0,0,0-3.48-.62,16.74,16.74,0,0,0-3.4.05,16.42,16.42,0,0,0-5.9,1.86A20.3,20.3,0,0,0,7,27.52c-.71.51-1.34,1-1.93,1.55A32.18,32.18,0,0,0,2.26,32C1.54,32.8,1,33.49.64,34l-.55.73Z"/><g class="cls-33"><path class="cls-34" d="M58.63,5.72c0,.17-.1.3-.22.3s-.23-.13-.23-.3.1-.3.23-.3S58.63,5.56,58.63,5.72Z"/></g><g class="cls-35"><path class="cls-36" d="M64.13,19.46a.23.23,0,1,1-.45,0c0-.17.1-.3.23-.3S64.13,19.29,64.13,19.46Z"/></g><g class="cls-35"><path class="cls-36" d="M64.13,19.46a.23.23,0,1,1-.45,0c0-.17.1-.3.23-.3S64.13,19.29,64.13,19.46Z"/></g><g class="cls-37"><path class="cls-38" d="M59.37,20.87a.23.23,0,1,1-.44,0c0-.16.1-.3.22-.3S59.37,20.71,59.37,20.87Z"/></g><g class="cls-35"><path class="cls-36" d="M64.13,19.46a.23.23,0,1,1-.45,0c0-.17.1-.3.23-.3S64.13,19.29,64.13,19.46Z"/></g><g class="cls-35"><path class="cls-36" d="M64.13,19.46a.23.23,0,1,1-.45,0c0-.17.1-.3.23-.3S64.13,19.29,64.13,19.46Z"/></g><g class="cls-37"><path class="cls-38" d="M59.37,20.87a.23.23,0,1,1-.44,0c0-.16.1-.3.22-.3S59.37,20.71,59.37,20.87Z"/></g><polygon class="cls-39" points="72.74 19.61 72.77 20.31 73.42 20.09 72.77 20.33 73.16 20.89 72.74 20.34 72.33 20.89 72.72 20.33 72.07 20.09 72.73 20.3 72.74 19.61"/><g class="cls-40"><path class="cls-41" d="M73.87,20.3a1.14,1.14,0,1,1-1.14-1.13A1.14,1.14,0,0,1,73.87,20.3Z"/></g><g class="cls-42"><path class="cls-43" d="M73.87,20.3a1.14,1.14,0,1,1-1.14-1.13A1.14,1.14,0,0,1,73.87,20.3Z"/></g><g class="cls-44"><path class="cls-45" d="M73.33,20.3a.6.6,0,1,1-.6-.59A.6.6,0,0,1,73.33,20.3Z"/></g><g class="cls-46"><path class="cls-47" d="M73.33,20.3a.6.6,0,1,1-.6-.59A.6.6,0,0,1,73.33,20.3Z"/></g><g class="cls-48"><path class="cls-49" d="M79.75,28a.26.26,0,0,1-.11.36c-.11,0-.25-.05-.31-.21a.27.27,0,0,1,.11-.35A.27.27,0,0,1,79.75,28Z"/></g><g class="cls-48"><path class="cls-49" d="M79.75,28a.26.26,0,0,1-.11.36c-.11,0-.25-.05-.31-.21a.27.27,0,0,1,.11-.35A.27.27,0,0,1,79.75,28Z"/></g><g class="cls-50"><path class="cls-51" d="M75.75,31a.26.26,0,0,1-.11.35c-.11,0-.25-.05-.31-.2a.28.28,0,0,1,.11-.36A.26.26,0,0,1,75.75,31Z"/></g><g class="cls-52"><path class="cls-53" d="M68.45,28.07a.21.21,0,0,1-.08.28c-.09,0-.21,0-.25-.16a.22.22,0,0,1,.09-.28A.21.21,0,0,1,68.45,28.07Z"/></g><g class="cls-48"><path class="cls-49" d="M79.75,28a.26.26,0,0,1-.11.36c-.11,0-.25-.05-.31-.21a.27.27,0,0,1,.11-.35A.27.27,0,0,1,79.75,28Z"/></g><g class="cls-54"><path class="cls-55" d="M80.32,36.2a.26.26,0,0,1-.11.36c-.11,0-.25-.05-.31-.21A.27.27,0,0,1,80,36,.27.27,0,0,1,80.32,36.2Z"/></g><g class="cls-52"><path class="cls-53" d="M68.45,28.07a.21.21,0,0,1-.08.28c-.09,0-.21,0-.25-.16a.22.22,0,0,1,.09-.28A.21.21,0,0,1,68.45,28.07Z"/></g><g class="cls-56"><path class="cls-57" d="M78.4,19.24a.17.17,0,0,1-.07.23.18.18,0,0,1-.19-.13.17.17,0,0,1,.07-.23A.18.18,0,0,1,78.4,19.24Z"/></g><g class="cls-58"><path class="cls-59" d="M70.79,21.77a.18.18,0,0,1-.07.23.2.2,0,0,1-.12-.36A.18.18,0,0,1,70.79,21.77Z"/></g><g class="cls-60"><path class="cls-61" d="M58.44,2a.2.2,0,0,1-.09.27c-.08,0-.19,0-.23-.16a.2.2,0,0,1,.08-.26C58.29,1.83,58.39,1.89,58.44,2Z"/></g><rect class="cls-62" x="61.92" y="14.78" width="0.64" height="0.07" transform="translate(26.23 67.7) rotate(-69.14)"/><polygon class="cls-62" points="61.21 14.8 61.28 14.82 61.47 14.2 61.39 14.18 61.21 14.8"/><polygon class="cls-62" points="60.31 14.57 60.38 14.59 60.52 13.96 60.44 13.94 60.31 14.57"/><polygon class="cls-62" points="59.39 14.41 59.46 14.43 59.54 13.79 59.47 13.78 59.39 14.41"/><polygon class="cls-62" points="58.48 14.36 58.55 14.36 58.55 13.72 58.48 13.72 58.48 14.36"/><path class="cls-63" d="M57.74,14.86s-.66,4.49.62,7.87c0,0,.55,1.42,1.28,1.18a2.18,2.18,0,0,0,1.55-2.54,18.67,18.67,0,0,1,.31-6Z"/><path class="cls-64" d="M59.53,20.89a1.91,1.91,0,0,0-1,.9,2.94,2.94,0,0,0-.27.73l.08.21s.55,1.42,1.28,1.18a2.18,2.18,0,0,0,1.55-2.54q0-.21-.06-.45A2.21,2.21,0,0,0,59.53,20.89Z"/><path class="cls-65" d="M58.91,19a7.84,7.84,0,0,1,0-1.37,10.32,10.32,0,0,1-1.34-1.22,17.65,17.65,0,0,0,.54,5.72,7.55,7.55,0,0,1,1.14-1.26A8.37,8.37,0,0,1,58.91,19Z"/><path class="cls-64" d="M61.08,18.83c0-.08,0-.15,0-.23a7.42,7.42,0,0,0-3.52-.48c0,.14,0,.29,0,.44A6.59,6.59,0,0,1,61.08,18.83Z"/><path class="cls-66" d="M57.74,14.86s-.06.4-.11,1a4.27,4.27,0,0,0,1.28,1.36,2.83,2.83,0,0,1,.93.75c.18.31.18,3.18.58,4.17.12.3.26.61.41.9a2.14,2.14,0,0,0,.36-1.71,18.67,18.67,0,0,1,.31-6Z"/><path class="cls-65" d="M60.52,26.24a2.08,2.08,0,0,1,.58-1,1.87,1.87,0,0,1,1.06-.58,1.55,1.55,0,0,1,.57.09c-.46-1.19-1.47-3.23-1.47-3.23a1.42,1.42,0,0,0-2-.06,1.66,1.66,0,0,0-.62,1.79,12,12,0,0,0,1.83,3.12C60.49,26.35,60.51,26.29,60.52,26.24Z"/><path class="cls-65" d="M60.52,26.24a2.08,2.08,0,0,1,.58-1,1.87,1.87,0,0,1,1.06-.58,1.55,1.55,0,0,1,.57.09c-.46-1.19-1.47-3.23-1.47-3.23a1.42,1.42,0,0,0-2-.06,1.66,1.66,0,0,0-.62,1.79,12,12,0,0,0,1.83,3.12C60.49,26.35,60.51,26.29,60.52,26.24Z"/><path class="cls-67" d="M61.26,21.56a1.57,1.57,0,0,0-1.36-.42l.09,0a1.48,1.48,0,0,1,.92.83c.3.65,1.15,2.45,1.29,2.7a1.6,1.6,0,0,1,.53.09C62.27,23.6,61.26,21.56,61.26,21.56Z"/><path class="cls-63" d="M61.1,25.28a2.75,2.75,0,0,1,.26-.22l-1.53-3.39s-.27-.13-.75.35a1.46,1.46,0,0,0-.2,1.62,11.75,11.75,0,0,0,1.65,2.58A2.08,2.08,0,0,1,61.1,25.28Z"/><path class="cls-63" d="M62.7,24.7c-.6-.08-1.06-.19-1.59.4a3.59,3.59,0,0,0-.62,1,2.38,2.38,0,0,0-.07,1.27,3.75,3.75,0,0,0,.42,1.38,2.88,2.88,0,0,0,.57.64c.15.12.41.38.62.31a.18.18,0,0,0,.1-.22l.2.11a.34.34,0,0,0,.51-.15.26.26,0,0,0,0-.15.64.64,0,0,0,.23.05c.32,0,.41-.2.24-.45a2.85,2.85,0,0,0-.68-.66,1.22,1.22,0,0,1-.27-.36.23.23,0,0,0,.07.07c.31.31.86.74,1.32.65s.15-.61,0-.78-.56-.4-.82-.63a1.74,1.74,0,0,1-.52-.65c-.07-.18-.12-.68.24-.52a.78.78,0,0,1,.27.24c.16.22.34,1,.73.92.19-.05.24-.31.24-.48a2.38,2.38,0,0,0-.54-1.38A3.82,3.82,0,0,0,62.7,24.7Z"/><path class="cls-68" d="M61,26.79a3,3,0,0,1,.59-.65c-.07-.18-.12-.37-.17-.52a2.17,2.17,0,0,1-.1-.62,1.85,1.85,0,0,0-.14.14,3.66,3.66,0,0,0-.62,1,2.29,2.29,0,0,0-.07,1.27c0,.1,0,.21.05.31A3.55,3.55,0,0,1,61,26.79Z"/><path class="cls-63" d="M59.55,11.91a7.93,7.93,0,0,0-2.33,2.68c-.64,1.47,4,3.92,4.43,2.23S59.9,11.62,59.55,11.91Z"/><path class="cls-69" d="M58,13.68s-.92.79-.52,1.66A4.57,4.57,0,0,0,60,17.12s-1.75-.77-2.18-1.62A2.08,2.08,0,0,1,58,13.68Z"/><path class="cls-70" d="M61.68,26.71s0,0,0,0a2.81,2.81,0,0,0,1,1.36h0A4,4,0,0,1,61.68,26.71Z"/><path class="cls-70" d="M62.92,29.24a3.4,3.4,0,0,1-1.75-2h0a2.84,2.84,0,0,0,1.74,2.06S62.93,29.24,62.92,29.24Z"/><path class="cls-71" d="M63.33,25.27a3.82,3.82,0,0,0-.63-.57c-.6-.08-1.06-.19-1.59.4h0c.36-.26.86-.6,1.17-.19.11.15.27.56.06.71-.44.29-.19,1.05.14,1.38a6.5,6.5,0,0,1,.69.74c.13.17,0,.42-.21.37a1.41,1.41,0,0,1-.7-.46,5.1,5.1,0,0,1-.55-.82A2.62,2.62,0,0,0,62.31,28c.13.15.48.47.4.71s-.54,0-.67-.09a3.22,3.22,0,0,1-.73-1A2.19,2.19,0,0,0,62,28.71c0,.05.51.43.25.53s-.68-.28-.85-.46a3.09,3.09,0,0,1-.57-.82,2.57,2.57,0,0,0,.52,1c.14.16.38.3.45.51a.11.11,0,0,1-.06.15.42.42,0,0,0,.33.08.18.18,0,0,0,.1-.22l.2.11a.34.34,0,0,0,.51-.15.26.26,0,0,0,0-.15.64.64,0,0,0,.23.05c.32,0,.41-.2.24-.45a2.85,2.85,0,0,0-.68-.66,1.22,1.22,0,0,1-.27-.36.23.23,0,0,0,.07.07c.31.31.86.74,1.32.65s.15-.61,0-.78-.56-.4-.82-.63a1.74,1.74,0,0,1-.52-.65c-.07-.18-.12-.68.24-.52a.78.78,0,0,1,.27.24c.16.22.34,1,.73.92.19-.05.24-.31.24-.48A2.38,2.38,0,0,0,63.33,25.27Z"/><path class="cls-70" d="M61.38,28.81a3.73,3.73,0,0,1-.52-.73,6,6,0,0,0,.3.52l.09.13a3.28,3.28,0,0,0,.9.72s0,0,0,0C61.91,29.21,61.62,29.06,61.38,28.81Z"/><path class="cls-63" d="M72,8.11s3.9,2.33,5.7,5.46c0,0,.75,1.32.11,1.74a2.19,2.19,0,0,1-3-.4A18.28,18.28,0,0,0,70,11.36Z"/><path class="cls-64" d="M75.5,13.31a2,2,0,0,1,1.32-.19,2.88,2.88,0,0,1,.72.26l.12.19s.75,1.32.11,1.74a2.19,2.19,0,0,1-3-.4c-.09-.11-.2-.22-.31-.34A2.15,2.15,0,0,1,75.5,13.31Z"/><path class="cls-65" d="M74.39,11.61a9.59,9.59,0,0,0-1.08-.85A11,11,0,0,0,73.2,9a17.62,17.62,0,0,1,4.1,4,6.94,6.94,0,0,0-1.7.09A8.17,8.17,0,0,0,74.39,11.61Z"/><path class="cls-64" d="M72.92,13.21l-.19-.14a7.53,7.53,0,0,1,1.85-3l.33.29A6.66,6.66,0,0,0,72.92,13.21Z"/><path class="cls-66" d="M72,8.11s.34.21.87.58a4.31,4.31,0,0,1,.25,1.85,2.81,2.81,0,0,0,0,1.19c.13.34,2.35,2.15,2.86,3.08.16.29.31.59.44.89a2.17,2.17,0,0,1-1.55-.79A18.28,18.28,0,0,0,70,11.36Z"/><path class="cls-65" d="M79,17.47a2.08,2.08,0,0,0-1.1-.17,1.93,1.93,0,0,0-1.13.46,1.56,1.56,0,0,0-.29.5c-.63-1.11-1.57-3.19-1.57-3.19a1.43,1.43,0,0,1,1.21-1.58,1.67,1.67,0,0,1,1.78.66,12,12,0,0,1,1.26,3.39Z"/><path class="cls-65" d="M79,17.47a2.08,2.08,0,0,0-1.1-.17,1.93,1.93,0,0,0-1.13.46,1.56,1.56,0,0,0-.29.5c-.63-1.11-1.57-3.19-1.57-3.19a1.43,1.43,0,0,1,1.21-1.58,1.67,1.67,0,0,1,1.78.66,12,12,0,0,1,1.26,3.39Z"/><path class="cls-67" d="M74.92,15.07a1.54,1.54,0,0,1,.54-1.31l0,.09a1.51,1.51,0,0,0,.06,1.23c.31.65,1.18,2.44,1.28,2.71a1.37,1.37,0,0,0-.27.47C75.86,17.15,74.92,15.07,74.92,15.07Z"/><path class="cls-63" d="M77.91,17.3l-.34.06L75.91,14s.08-.29.75-.36a1.46,1.46,0,0,1,1.38.87A11.78,11.78,0,0,1,79,17.46,2.1,2.1,0,0,0,77.91,17.3Z"/><path class="cls-63" d="M76.44,18.17c.32-.51.52-.93,1.32-1a3.57,3.57,0,0,1,1.13.12,2.28,2.28,0,0,1,1,.76,3.57,3.57,0,0,1,.8,1.19,2.7,2.7,0,0,1,.14.85c0,.19,0,.56-.15.67a.19.19,0,0,1-.24-.05l0,.22c-.06.23-.21.36-.44.3a.25.25,0,0,1-.13-.09.68.68,0,0,1-.1.21c-.19.26-.42.2-.51-.1a3,3,0,0,1-.08-.94,1,1,0,0,0-.1-.43.28.28,0,0,0,0,.09c0,.44,0,1.13-.34,1.43s-.56-.26-.58-.51,0-.69,0-1a1.84,1.84,0,0,0-.17-.81c-.1-.18-.45-.53-.56-.16a.77.77,0,0,0,0,.37c.07.26.56.91.25,1.14-.16.13-.39,0-.52-.11A2.39,2.39,0,0,1,76.49,19,4.06,4.06,0,0,1,76.44,18.17Z"/><path class="cls-68" d="M79.15,18.17a2.86,2.86,0,0,0-.88,0c-.1-.17-.22-.33-.3-.46a2.36,2.36,0,0,0-.42-.47l.21,0a3.61,3.61,0,0,1,1.13.13,2.23,2.23,0,0,1,1,.75l.21.23A3.6,3.6,0,0,0,79.15,18.17Z"/><path class="cls-63" d="M68.53,7.64a7.86,7.86,0,0,1,3.54-.1c1.54.43.49,5.6-1.07,4.84S68.08,7.75,68.53,7.64Z"/><path class="cls-69" d="M70.9,7.54s1.19-.22,1.62.64a4.56,4.56,0,0,1-.23,3.09,5.59,5.59,0,0,0,.13-2.71A2.07,2.07,0,0,0,70.9,7.54Z"/><path class="cls-70" d="M78.65,18.66s0,0,0,0a2.73,2.73,0,0,1,.43,1.62h0A4,4,0,0,0,78.65,18.66Z"/><path class="cls-70" d="M79.82,21.22a3.41,3.41,0,0,0-.47-2.64s0,0,0,0a2.83,2.83,0,0,1,.49,2.66S79.82,21.23,79.82,21.22Z"/><path class="cls-71" d="M76.49,19a4.06,4.06,0,0,1,0-.86c.32-.51.52-.93,1.32-1h0c-.43.11-1,.28-.89.78,0,.18.26.56.51.49.51-.15.94.52,1,1a6.51,6.51,0,0,0,.14,1,.22.22,0,0,0,.42.07A1.47,1.47,0,0,0,79,19.7a4,4,0,0,0-.28-.95,2.61,2.61,0,0,1,.5,1.2c0,.19.06.67.3.76s.36-.41.35-.58a3.17,3.17,0,0,0-.34-1.22A2.19,2.19,0,0,1,80,20.13c0,.08,0,.67.25.54s.21-.7.18-1a3.52,3.52,0,0,0-.27-1,2.48,2.48,0,0,1,.41,1c0,.21,0,.48.11.67a.12.12,0,0,0,.16,0,.4.4,0,0,1-.15.3.19.19,0,0,1-.24-.05l0,.22c-.06.23-.21.36-.44.3a.25.25,0,0,1-.13-.09.68.68,0,0,1-.1.21c-.19.26-.42.2-.51-.1a3,3,0,0,1-.08-.94,1,1,0,0,0-.1-.43.28.28,0,0,0,0,.09c0,.44,0,1.13-.34,1.43s-.56-.26-.58-.51,0-.69,0-1a1.84,1.84,0,0,0-.17-.81c-.1-.18-.45-.53-.56-.16a.77.77,0,0,0,0,.37c.07.26.56.91.25,1.14-.16.13-.39,0-.52-.11A2.39,2.39,0,0,1,76.49,19Z"/><path class="cls-70" d="M80.46,19.75a3.92,3.92,0,0,0-.23-.86,5.79,5.79,0,0,1,.21.57s0,.09,0,.14a3.41,3.41,0,0,1,0,1.15s0,0,0,0C80.44,20.42,80.5,20.1,80.46,19.75Z"/><path class="cls-63" d="M63.41,21.84a2.67,2.67,0,0,0,.28,1.62c.43.88,5.84.36,7.14,0s4.33-4.64,3.86-5.55-.79-1.22-1.36-1S63.41,21.84,63.41,21.84Z"/><path class="cls-71" d="M64.8,23.53a16.19,16.19,0,0,1-1-1.9l-.42.21a2.67,2.67,0,0,0,.28,1.62c.12.25.65.38,1.36.44C65,23.78,64.88,23.65,64.8,23.53Z"/><path class="cls-71" d="M73.33,17l-.44.2a.08.08,0,0,1,0,0,11.49,11.49,0,0,1,.61,1.08c.22.5.41,1,.61,1.52.46-.83.72-1.55.56-1.87C74.22,17,73.9,16.72,73.33,17Z"/><path class="cls-72" d="M69.6,7.77c-.92-.89-4.6.82-4.6.82l-1.2.61-1.23.55s-3.65,1.77-3.54,3,3.83,9,4.61,9.45c.53.29,2.5,0,4.49-.63.44-.14.83-.33,1.27-.5s.88-.45,1.27-.71c1.76-1.13,3.22-2.48,3.33-3.08C74.16,16.44,70.51,8.66,69.6,7.77Z"/><path class="cls-63" d="M69.28,7.84c-.87-.83-4.35.79-4.35.79L63.8,9.2l-1.16.51s-3.45,1.67-3.35,2.87,3.62,8.53,4.36,8.93c.5.27,2.36,0,4.24-.6.42-.13.79-.31,1.2-.47s.83-.42,1.2-.67c1.66-1.07,3-2.34,3.14-2.91C73.59,16,70.14,8.68,69.28,7.84Z"/><path class="cls-73" d="M69.35,20.31a7.25,7.25,0,0,1-4.7.79,5.59,5.59,0,0,1-2.55-1.27,9.11,9.11,0,0,0,1.54,2.4c.53.29,2.5,0,4.49-.63.44-.14.83-.33,1.27-.5s.88-.45,1.27-.71c1.76-1.13,3.22-2.48,3.33-3.08a5.92,5.92,0,0,0-.55-1.87A7.56,7.56,0,0,1,69.35,20.31Z"/><path class="cls-74" d="M64.83,11.2a10.35,10.35,0,0,0,2.75-2,4.37,4.37,0,0,0,1.2-1.65A11.92,11.92,0,0,0,65,8.59l-1.2.61-1.23.55a12.37,12.37,0,0,0-3.12,2.12A7.28,7.28,0,0,0,64.83,11.2Z"/><path class="cls-63" d="M59.41,8.85a1.57,1.57,0,0,1-.74,2.09h0a1.57,1.57,0,0,1-2.09-.74l-.47-1a1.56,1.56,0,0,1,.74-2.09h0a1.57,1.57,0,0,1,2.09.75Z"/><path class="cls-75" d="M59.25,8.87a1.42,1.42,0,0,1-.67,1.88h0a1.43,1.43,0,0,1-1.89-.67l-.42-.9a1.41,1.41,0,0,1,.67-1.88h0A1.42,1.42,0,0,1,58.82,8Z"/><path class="cls-76" d="M56.9,8.23a.32.32,0,1,1-.57.27.32.32,0,1,1,.57-.27Z"/><path class="cls-77" d="M56.59,8.25a.09.09,0,0,1,0,.12.1.1,0,0,1-.12,0,.09.09,0,0,1,0-.12A.08.08,0,0,1,56.59,8.25Z"/><path class="cls-77" d="M56.51,8.49s0,0,0,0,0,0-.05,0a0,0,0,0,1,0-.06A0,0,0,0,1,56.51,8.49Z"/><path class="cls-76" d="M57.43,9.47a.32.32,0,1,1-.58.28.32.32,0,0,1,.58-.28Z"/><path class="cls-77" d="M57.12,9.49a.09.09,0,0,1,0,.12.08.08,0,0,1-.11,0,.09.09,0,0,1,0-.12A.1.1,0,0,1,57.12,9.49Z"/><path class="cls-77" d="M57,9.73a0,0,0,1,1-.06,0A0,0,0,0,1,57,9.73Z"/><path class="cls-74" d="M56.85,7.11a1.65,1.65,0,0,0-.41.28,5.71,5.71,0,0,0,.74,2c.21.37.41.75.65,1.11.11.18.22.37.35.55a1.44,1.44,0,0,0,.49-.14,1.57,1.57,0,0,0,.74-2.09l-.47-1A1.57,1.57,0,0,0,56.85,7.11Z"/><path class="cls-63" d="M66.31,5.58a1.56,1.56,0,0,0,2.09.74h0a1.57,1.57,0,0,0,.74-2.09l-.47-1a1.58,1.58,0,0,0-2.09-.75h0a1.57,1.57,0,0,0-.75,2.09Z"/><path class="cls-75" d="M66.42,5.46a1.4,1.4,0,0,0,1.88.67h0A1.41,1.41,0,0,0,69,4.25l-.43-.89a1.4,1.4,0,0,0-1.88-.67h0A1.4,1.4,0,0,0,66,4.57Z"/><path class="cls-76" d="M67.41,3.25a.34.34,0,0,0,.43.15A.33.33,0,0,0,68,3a.32.32,0,1,0-.58.28Z"/><path class="cls-77" d="M67.62,3a.1.1,0,0,0,.12,0,.09.09,0,0,0,0-.12.08.08,0,0,0-.11,0A.09.09,0,0,0,67.62,3Z"/><path class="cls-77" d="M67.86,3.11s0,0,0,0,0,0,0-.05a0,0,0,0,0-.05,0A0,0,0,0,0,67.86,3.11Z"/><path class="cls-76" d="M68,4.44a.34.34,0,0,0,.43.15A.32.32,0,1,0,68,4.44Z"/><path class="cls-77" d="M68.26,4.21a.08.08,0,0,0,.11,0,.1.1,0,0,0,0-.12.09.09,0,1,0-.15.08Z"/><path class="cls-77" d="M68.49,4.3a0,0,0,0,0,.05,0,0,0,0,0,0,0-.06,0,0,0,0,0,0,0A0,0,0,0,0,68.49,4.3Z"/><path class="cls-74" d="M66.58,2.49a1.57,1.57,0,0,1,.47-.13,5.89,5.89,0,0,1,1.11,1.85c.16.4.32.8.45,1.2.07.2.14.41.2.63a1.65,1.65,0,0,1-.41.28,1.56,1.56,0,0,1-2.09-.74l-.48-1A1.57,1.57,0,0,1,66.58,2.49Z"/><path class="cls-63" d="M60.37.3a6.81,6.81,0,0,0-.7.28c-.23.11-.45.24-.65.36a5.66,5.66,0,0,0-2,7.33C58.3,11,59.16,12,62,11.62a8.3,8.3,0,0,0,2.53-.83A7.46,7.46,0,0,0,66.72,9.4c2.14-2,1.92-3.27.6-6A5.65,5.65,0,0,0,60.37.3Z"/><path class="cls-65" d="M58.56,10.82c.8.79,1.79,1,3.48.8a8.3,8.3,0,0,0,2.53-.83A7.46,7.46,0,0,0,66.72,9.4C68.05,8.16,68.47,7.2,68.27,6A16.43,16.43,0,0,0,58.56,10.82Z"/><path class="cls-78" d="M57.07,6.55c.22,0,.13-.31.14-.49a7.69,7.69,0,0,1,.13-1.26,5.68,5.68,0,0,1,.88-2.09,3.32,3.32,0,0,0-.71-.4,5.62,5.62,0,0,0-1,4.24A2.41,2.41,0,0,0,57.07,6.55Z"/><path class="cls-78" d="M64.54,1.48q.38.25.72.54V2c.12-.26.25-.51.38-.76A5.68,5.68,0,0,0,63.48.16c-.07.21-.14.43-.2.64A7.66,7.66,0,0,1,64.54,1.48Z"/><path class="cls-74" d="M66.62,4a4.68,4.68,0,0,1-2.38,6.18A4.69,4.69,0,0,1,58,8.16,4.69,4.69,0,0,1,60.33,2,4.68,4.68,0,0,1,66.62,4Z"/><path class="cls-79" d="M66.24,3.92A4.39,4.39,0,0,1,64,9.72,4.4,4.4,0,0,1,58.1,7.78,4.39,4.39,0,0,1,60.33,2,4.4,4.4,0,0,1,66.24,3.92Z"/><path class="cls-80" d="M65,2.37a3.74,3.74,0,0,1,1,1.55A3.84,3.84,0,0,1,64.81,8a5.51,5.51,0,0,1-3.92,1.46,3.66,3.66,0,0,1-3.14-4.07,4.13,4.13,0,0,0,.35,2.41A4.4,4.4,0,0,0,64,9.72a4.39,4.39,0,0,0,2.23-5.8A4.1,4.1,0,0,0,65,2.37Z"/><path class="cls-81" d="M59,8.29a5.3,5.3,0,0,0,.46.6,4.57,4.57,0,0,0,.45.43,6.6,6.6,0,0,0,.77.17A6.86,6.86,0,0,0,62,9.62a5.37,5.37,0,0,1-1.5-1.43A11.94,11.94,0,0,1,59,8.29Z"/><path class="cls-81" d="M60.22,2.44a4.1,4.1,0,0,0-2,3.17,4.6,4.6,0,0,0,.49,2.17c.44,0,.88-.1,1.31-.16h.08a4.85,4.85,0,0,1-.44-1.06,4.16,4.16,0,0,1,.21-3.08A5.14,5.14,0,0,1,61,2.05,4.84,4.84,0,0,0,60.22,2.44Z"/><path class="cls-82" d="M68.08,10.88l-.79.37-4.18,2-.79.37c-.78.37-.62,1-.49,1.56L63.15,18l1,2.17,0,.08h0c.31.42.72.88,1.46.53l.79-.37,4.18-2,.79-.37c.74-.35.63-1,.51-1.47h0l0-.08-1-2.18-1.32-2.77C69.27,11.05,68.86,10.51,68.08,10.88Z"/><path class="cls-63" d="M68,11.05l-.74.36-3.93,1.86-.75.35c-.73.35-.58,1-.46,1.47l1.24,2.61,1,2.05,0,.08h0c.29.4.68.84,1.37.51L66.5,20l3.94-1.86.74-.35c.69-.34.6-.91.48-1.39h0l0-.07-1-2-1.24-2.62C69.12,11.22,68.73,10.71,68,11.05Z"/><path class="cls-75" d="M70.32,15.37l-.18.08-.9.43-.18.08c-.17.08-.13.23-.1.34l.28.61.23.47v0h0c.07.09.16.19.32.12l.17-.09.91-.43.17-.08c.16-.08.14-.21.11-.32h0v0l-.23-.47-.28-.61C70.58,15.41,70.49,15.29,70.32,15.37Z"/><path class="cls-63" d="M70.27,15.49l-.15.07-.79.37-.15.07c-.14.07-.11.2-.09.29l.25.53.2.41h0c.06.08.14.17.28.1l.15-.07.79-.37.14-.07c.14-.07.12-.18.1-.28h0v0l-.2-.41-.25-.52C70.49,15.52,70.41,15.42,70.27,15.49Z"/><path class="cls-69" d="M70.2,15.64l-.11,0-.63.3-.12.06c-.12.05-.12.09-.12.13l.07.15.06.12h0s.06,0,.18,0l.11-.05.63-.3.12,0c.11-.06.12-.1.12-.13h0l-.06-.11-.07-.16S70.32,15.58,70.2,15.64Z"/><path class="cls-69" d="M68.25,11.57l-.34.16-1.77.84-.33.16-.37.17-.34.16-1.77.84-.33.16c-.33.16-.31.35-.29.5l.36.76.29.59v0h0a.4.4,0,0,0,.55.08l.34-.16L66,15l.33-.16.37-.18.34-.16,1.77-.84.33-.15c.31-.15.31-.33.29-.48h0l0,0-.28-.6-.36-.76C68.71,11.55,68.58,11.41,68.25,11.57Z"/><path class="cls-75" d="M68.47,16.25l-.17.08-.91.43-.17.08c-.17.08-.14.23-.11.34l.29.6.22.48v0h0c.06.1.15.2.31.12l.18-.08.91-.43.17-.08c.16-.08.14-.21.11-.32h0L69.09,17l-.29-.6C68.73,16.28,68.64,16.16,68.47,16.25Z"/><path class="cls-63" d="M68.42,16.36l-.14.07-.79.37-.15.07c-.15.08-.12.2-.09.3l.25.52.19.41v0h0a.21.21,0,0,0,.28.1l.14-.07.79-.38.15-.07c.14-.06.12-.18.1-.28h0L69,17l-.25-.53C68.65,16.39,68.57,16.29,68.42,16.36Z"/><path class="cls-69" d="M68.36,16.51l-.12.06-.62.3-.12.05c-.12.06-.12.1-.13.13l.08.15,0,.12h0s.06,0,.17,0l.12-.06.63-.29.11-.06c.12,0,.12-.09.13-.12h0l-.06-.12-.07-.15S68.48,16.46,68.36,16.51Z"/><path class="cls-65" d="M67.7,15.41a.42.42,0,0,1-.2.56h0a.43.43,0,0,1-.57-.2h0a.43.43,0,0,1,.21-.57h0a.42.42,0,0,1,.56.21Z"/><path class="cls-65" d="M68.76,14.9a.43.43,0,0,1-.2.57h0a.43.43,0,0,1-.57-.2h0a.42.42,0,0,1,.21-.57h0a.42.42,0,0,1,.56.2Z"/><path class="cls-65" d="M69.82,14.4a.42.42,0,0,1-.2.56h0a.43.43,0,0,1-.57-.2h0a.42.42,0,0,1,.21-.56h0a.42.42,0,0,1,.56.2Z"/><rect class="cls-65" x="64.35" y="15.91" width="2.44" height="3.52" transform="translate(-1.25 29.82) rotate(-25.39)"/><rect class="cls-63" x="64.12" y="16.63" width="0.64" height="0.64" transform="translate(-1.04 29.31) rotate(-25.43)"/><rect class="cls-63" x="64.76" y="16.33" width="0.64" height="0.64" transform="translate(-0.85 29.51) rotate(-25.39)"/><rect class="cls-63" x="65.4" y="16.02" width="0.64" height="0.64" transform="translate(-0.66 29.77) rotate(-25.4)"/><rect class="cls-63" x="64.44" y="17.31" width="0.64" height="0.64" transform="translate(-1.3 29.48) rotate(-25.4)"/><rect class="cls-63" x="65.08" y="17.01" width="0.64" height="0.64" transform="translate(-1.1 29.8) rotate(-25.46)"/><rect class="cls-63" x="65.72" y="16.7" width="0.64" height="0.64" transform="translate(-0.89 30.1) rotate(-25.51)"/><rect class="cls-63" x="64.77" y="18" width="0.64" height="0.64" transform="translate(-1.58 29.6) rotate(-25.32)"/><rect class="cls-63" x="65.41" y="17.7" width="0.64" height="0.64" transform="translate(-1.38 29.93) rotate(-25.4)"/><rect class="cls-63" x="66.05" y="17.39" width="0.64" height="0.64" transform="translate(-1.2 30.08) rotate(-25.32)"/><rect class="cls-63" x="65.09" y="18.68" width="0.64" height="0.64" transform="translate(-1.83 29.89) rotate(-25.4)"/><rect class="cls-63" x="65.73" y="18.38" width="0.64" height="0.64" transform="translate(-1.61 30.31) rotate(-25.55)"/><rect class="cls-63" x="66.37" y="18.07" width="0.64" height="0.64" transform="translate(-1.46 30.29) rotate(-25.32)"/><path class="cls-83" d="M68.31,11.83l-.26.12-1.34.64-.26.12-.28.13-.25.12-1.35.64-.25.12a.32.32,0,0,0-.22.38l.28.57.21.46h0c.07.08.17.17.41.06l.26-.12,1.34-.64.25-.12.28-.13.26-.12,1.34-.64.26-.12c.23-.12.23-.25.22-.36h0v0L69,12.48l-.27-.58C68.66,11.81,68.56,11.71,68.31,11.83Z"/><path class="cls-84" d="M66.51,13.59a7.8,7.8,0,0,0,1.62-1,3.82,3.82,0,0,0,.51-.48l0-.08c-.07-.08-.16-.18-.4-.06l-3.73,1.77c-.24.11-.22.24-.2.35l0,.1A3.66,3.66,0,0,0,66.51,13.59Z"/><path class="cls-85" d="M74.31,32.57a2.23,2.23,0,0,0-1.65-1.09c-1-.07-1.8,1-2.07,1.83a3.44,3.44,0,0,0-.15,1.56c0,.25.09.49.14.74l.06.55A11.14,11.14,0,0,0,71,37.55a5.06,5.06,0,0,0,1,2.11,2.14,2.14,0,0,0,3.33-.48,3.3,3.3,0,0,0,.41-1.9,6.49,6.49,0,0,0-.19-1.17c-.1-.47-.18-.94-.3-1.41A7.4,7.4,0,0,0,74.31,32.57Z"/><path class="cls-71" d="M73.52,34.41a3,3,0,0,0,.39-2.26l0-.11a2,2,0,0,0-1.22-.56c-1-.07-1.8,1-2.07,1.83a3.44,3.44,0,0,0-.15,1.56l.06.37A2.22,2.22,0,0,0,73.52,34.41Z"/><path class="cls-63" d="M72.65,36.52a4.52,4.52,0,0,0-1.7,1,5.21,5.21,0,0,0,1,2.1,2.14,2.14,0,0,0,3.33-.48,3.3,3.3,0,0,0,.41-1.9,6.08,6.08,0,0,0-.12-.87A4.56,4.56,0,0,0,72.65,36.52Z"/><path class="cls-65" d="M74.31,32.57a2.23,2.23,0,0,0-1.65-1.09,1.41,1.41,0,0,0-.46,0,2.11,2.11,0,0,1,1.47.7,6,6,0,0,1,1.23,3.3,4.08,4.08,0,0,1-.91,3.6,1.79,1.79,0,0,1-1.64.63,1.61,1.61,0,0,1-.74-.49,2.27,2.27,0,0,0,.29.4,2.14,2.14,0,0,0,3.33-.48,3.3,3.3,0,0,0,.41-1.9,6.49,6.49,0,0,0-.19-1.17c-.1-.47-.18-.94-.3-1.41A7.4,7.4,0,0,0,74.31,32.57Z"/><path class="cls-65" d="M72.94,34.45a2,2,0,0,0,.53-2.13l-.07-.1c-2.62-3.29-3.05-3.15-3.08-4.73s.06-4-.48-4.31c-1.74-1-4.8-.59-4.8-.59s-1.1.31-1.19.76,0,5.38,1.55,7.39a25.77,25.77,0,0,0,5.22,4.39A2.12,2.12,0,0,0,72.94,34.45Z"/><path class="cls-63" d="M67.31,30.25a1.44,1.44,0,0,0,.59-2.13,2.56,2.56,0,0,0-3.56.05,7.21,7.21,0,0,0,1.06,2.57h0A4.17,4.17,0,0,0,67.31,30.25Z"/><path class="cls-67" d="M66.53,30.06A1,1,0,0,0,67,28.58a1.77,1.77,0,0,0-2.47,0,5,5,0,0,0,.73,1.78h0A2.82,2.82,0,0,0,66.53,30.06Z"/><path class="cls-63" d="M66.72,26.07a6,6,0,0,1,3.59.31c0-1.41,0-3-.47-3.2-1.74-1-4.8-.59-4.8-.59s-1.1.31-1.19.76a17.87,17.87,0,0,0,.3,3.89A4.75,4.75,0,0,1,66.72,26.07Z"/><path class="cls-63" d="M69.26,31.82a3.75,3.75,0,0,0,1.37-1.45,4.17,4.17,0,0,0,.39-1,2.73,2.73,0,0,1-.62-1.13,6.87,6.87,0,0,1-2.43,2,4.43,4.43,0,0,1-2.48.64,12.49,12.49,0,0,0,1.2,1.26A2.85,2.85,0,0,0,69.26,31.82Z"/><path class="cls-77" d="M68.6,30.37a4.67,4.67,0,0,0,1.81-2.05s0,0,0-.06a6.87,6.87,0,0,1-2.43,2,4.43,4.43,0,0,1-2.48.64l.4.47A5.1,5.1,0,0,0,68.6,30.37Z"/><path class="cls-73" d="M70.32,27.49c0-1.58.06-4-.48-4.31-1.74-1-4.8-.59-4.8-.59a3.44,3.44,0,0,0-.79.33,1.89,1.89,0,0,1,.44-.1,4.9,4.9,0,0,1,1.66.14,2.51,2.51,0,0,1,1.32.63A3.84,3.84,0,0,1,68.11,26a8.64,8.64,0,0,0,.51,3.15,6.72,6.72,0,0,0,2,2.34c.37.33.76.64,1.15,1a7.67,7.67,0,0,1,.92.79,1.06,1.06,0,0,1,.06,1.4,2.39,2.39,0,0,0,.23-.22,2,2,0,0,0,.53-2.13l-.07-.1C70.78,28.93,70.35,29.07,70.32,27.49Z"/><path class="cls-86" d="M64.27,23.37s0,5.44,1.21,7.09,5.23,4.39,5.23,4.39-4.22-3.29-5.15-4.93-.07-6.56-.07-6.56Z"/><path class="cls-77" d="M73.75,35.54l-.06,0a3.52,3.52,0,0,0-2.46,1.09.22.22,0,0,1-.29.05.2.2,0,0,1,0-.29,3.9,3.9,0,0,1,2.74-1.27.22.22,0,0,1,.24.19A.21.21,0,0,1,73.75,35.54Z"/><path class="cls-77" d="M74.05,36.43l-.08,0a3.69,3.69,0,0,0-2.62,1,.2.2,0,0,1-.29,0,.21.21,0,0,1,0-.29A3.94,3.94,0,0,1,73.94,36a.2.2,0,0,1,.22.19A.22.22,0,0,1,74.05,36.43Z"/><path class="cls-85" d="M76.46,34.08c.28.39.59.75.89,1.13a7.39,7.39,0,0,0,.79.88,3.2,3.2,0,0,0,1.73.88,2.13,2.13,0,0,0,2.48-2.27,5.24,5.24,0,0,0-1-2.07,11.81,11.81,0,0,0-.89-1.12L80,31.12a6.71,6.71,0,0,0-.48-.58,3.5,3.5,0,0,0-1.3-.87,2.39,2.39,0,0,0-2.73.44,2.25,2.25,0,0,0-.2,2A7.47,7.47,0,0,0,76.46,34.08Z"/><path class="cls-71" d="M77.26,32.63a3,3,0,0,1-2-1.12l-.06-.1a2,2,0,0,1,.33-1.3,2.39,2.39,0,0,1,2.73-.44,3.5,3.5,0,0,1,1.3.87c.09.09.17.19.25.28A2.21,2.21,0,0,1,77.26,32.63Z"/><path class="cls-63" d="M79.44,33.29a4.58,4.58,0,0,1,1.89-.65,5.25,5.25,0,0,1,1,2.06A2.13,2.13,0,0,1,79.87,37a3.2,3.2,0,0,1-1.73-.88,7.22,7.22,0,0,1-.6-.64A4.63,4.63,0,0,1,79.44,33.29Z"/><path class="cls-65" d="M75.33,32.08a2.25,2.25,0,0,1,.2-2,1.62,1.62,0,0,1,.32-.32,2.14,2.14,0,0,0-.39,1.57,5.93,5.93,0,0,0,1.79,3A4,4,0,0,0,80.61,36a1.81,1.81,0,0,0,1.53-.87,1.69,1.69,0,0,0,.08-.89,2.85,2.85,0,0,1,.13.48A2.13,2.13,0,0,1,79.87,37a3.2,3.2,0,0,1-1.73-.88,7.39,7.39,0,0,1-.79-.88c-.3-.38-.61-.74-.89-1.13A7.47,7.47,0,0,1,75.33,32.08Z"/><path class="cls-65" d="M77.65,32.21a2.14,2.14,0,0,1-1.56-.45,2.18,2.18,0,0,1-.42-.49l0-.11c-.89-4.11-.52-4.35-1.72-5.38s-3.14-2.48-3-3.1c.34-2,2.58-4.09,2.58-4.09s.93-.66,1.34-.44,4.13,3.44,4.74,5.87a25.87,25.87,0,0,1,.1,6.83A2.13,2.13,0,0,1,77.65,32.21Z"/><path class="cls-63" d="M78,25.2a1.45,1.45,0,0,1-2-.9,2.56,2.56,0,0,1,2.29-2.72A7.18,7.18,0,0,1,79.55,24v0A4.19,4.19,0,0,1,78,25.2Z"/><path class="cls-67" d="M78.31,24.47a1,1,0,0,1-1.41-.61A1.77,1.77,0,0,1,78.49,22a5.06,5.06,0,0,1,.92,1.69h0A2.86,2.86,0,0,1,78.31,24.47Z"/><path class="cls-63" d="M75.09,22.09a6.13,6.13,0,0,0-2,3c-1.09-.9-2.26-1.91-2.18-2.39.34-2,2.58-4.09,2.58-4.09s.93-.66,1.34-.44a18.66,18.66,0,0,1,2.82,2.7A4.69,4.69,0,0,0,75.09,22.09Z"/><path class="cls-63" d="M77.94,27.7a3.7,3.7,0,0,1-2,.14,3.92,3.92,0,0,1-1-.32,2.62,2.62,0,0,0-.49-1.19,6.79,6.79,0,0,0,3.06-.65,4.39,4.39,0,0,0,2.06-1.51,10.58,10.58,0,0,1,.22,1.73A2.86,2.86,0,0,1,77.94,27.7Z"/><path class="cls-77" d="M77.24,26.27a4.74,4.74,0,0,1-2.74.11.1.1,0,0,0,0-.05,6.79,6.79,0,0,0,3.06-.65,4.39,4.39,0,0,0,2.06-1.51,5.12,5.12,0,0,1,.11.61A5,5,0,0,1,77.24,26.27Z"/><path class="cls-73" d="M73.92,25.78c-1.2-1-3.14-2.48-3-3.1.34-2,2.58-4.09,2.58-4.09a3.82,3.82,0,0,1,.75-.4,1.73,1.73,0,0,0-.35.27,4.51,4.51,0,0,0-.94,1.38,2.57,2.57,0,0,0-.36,1.42c.14.82,1,1.39,1.61,1.89a8.49,8.49,0,0,1,2.12,2.39,6.66,6.66,0,0,1,.58,3c0,.5,0,1,0,1.5a7,7,0,0,0,0,1.21,1.07,1.07,0,0,0,1,.94l-.32,0a2.14,2.14,0,0,1-1.56-.45,2.18,2.18,0,0,1-.42-.49l0-.11C74.75,27.05,75.12,26.81,73.92,25.78Z"/><path class="cls-86" d="M74.55,18.49s4.22,3.44,4.74,5.42.09,6.83.09,6.83.11-5.35-.57-7.1-5-4.21-5-4.21Z"/><path class="cls-77" d="M78,33.53a.1.1,0,0,0,.05,0,3.52,3.52,0,0,1,2.4-1.21.21.21,0,0,0,.22-.2.2.2,0,0,0-.19-.22,3.93,3.93,0,0,0-2.71,1.33.2.2,0,0,0,0,.29A.2.2,0,0,0,78,33.53Z"/><path class="cls-77" d="M78.49,34.32l.06,0A3.67,3.67,0,0,1,81,32.91a.21.21,0,1,0,0-.41A3.92,3.92,0,0,0,78.25,34a.21.21,0,0,0,0,.29A.24.24,0,0,0,78.49,34.32Z"/><path class="cls-69" d="M64.28,21.43S61.52,16.83,61,14.9c0,0-.31-1,.14-1.41a18.52,18.52,0,0,1,3.27-1.32l-2.65,1.38s-.68.38-.3,1.53S61.93,16.2,64.28,21.43Z"/><path class="cls-69" d="M72.87,17.36s-1.83-5-3-6.67c0,0-.58-.86-1.19-.78a19,19,0,0,0-3.09,1.7l2.75-1.18s.73-.29,1.38.73S70.3,12.23,72.87,17.36Z"/></g></g></g></svg>